SolidWorks IGES file using analytic representation for surfaces         S      1
1H,,1H;,12Hbattery_clip,58HZ:\Dropbox\Floatsat\Mechanical_Models\Igs\batG      1
tery_clip.IGS,15HSolidWorks 2016,15HSolidWorks 2016,32,308,15,308,15,   G      2
12Hbattery_clip,1.,2,2HMM,50,0.125,13H171214.023107,1E-008,499990.,13HMaG      3
rcoSanroman,,11,0,13H171214.023107;                                     G      4
     314       1       0       0       0                        00000200D      1
     314       0       0       1       0                               0D      2
     128       2       0       0       0                        01010000D      3
     128       0       0       2       0                               0D      4
     126       4       0       0       0                        01010500D      5
     126       0       0       2       0                               0D      6
     110       6       0       0       0                        01010000D      7
     110       0       0       1       0                               0D      8
     126       7       0       0       0                        01010500D      9
     126       0       0       2       0                               0D     10
     110       9       0       0       0                        01010000D     11
     110       0       0       1       0                               0D     12
     126      10       0       0       0                        01010500D     13
     126       0       0       2       0                               0D     14
     110      12       0       0       0                        01010000D     15
     110       0       0       1       0                               0D     16
     126      13       0       0       0                        01010500D     17
     126       0       0       2       0                               0D     18
     110      15       0       0       0                        01010000D     19
     110       0       0       1       0                               0D     20
     102      16       0       0       0                        01010500D     21
     102       0       0       1       0                               0D     22
     102      17       0       0       0                        01010000D     23
     102       0       0       1       0                               0D     24
     142      18       0       0       0                        00010500D     25
     142       0       0       1       0                               0D     26
     144      19       0       0       0                        00000000D     27
     144       0      -1       1       0                               0D     28
     128      20       0       0       0                        01010000D     29
     128       0       0       2       0                               0D     30
     126      22       0       0       0                        01010500D     31
     126       0       0       2       0                               0D     32
     110      24       0       0       0                        01010000D     33
     110       0       0       1       0                               0D     34
     126      25       0       0       0                        01010500D     35
     126       0       0       2       0                               0D     36
     110      27       0       0       0                        01010000D     37
     110       0       0       1       0                               0D     38
     126      28       0       0       0                        01010500D     39
     126       0       0       2       0                               0D     40
     110      30       0       0       0                        01010000D     41
     110       0       0       1       0                               0D     42
     126      31       0       0       0                        01010500D     43
     126       0       0       2       0                               0D     44
     110      33       0       0       0                        01010000D     45
     110       0       0       1       0                               0D     46
     102      34       0       0       0                        01010500D     47
     102       0       0       1       0                               0D     48
     102      35       0       0       0                        01010000D     49
     102       0       0       1       0                               0D     50
     142      36       0       0       0                        00010500D     51
     142       0       0       1       0                               0D     52
     144      37       0       0       0                        00000000D     53
     144       0      -1       1       0                               0D     54
     128      38       0       0       0                        01010000D     55
     128       0       0       2       0                               0D     56
     126      40       0       0       0                        01010500D     57
     126       0       0       2       0                               0D     58
     110      42       0       0       0                        01010000D     59
     110       0       0       1       0                               0D     60
     126      43       0       0       0                        01010500D     61
     126       0       0       2       0                               0D     62
     110      45       0       0       0                        01010000D     63
     110       0       0       1       0                               0D     64
     126      46       0       0       0                        01010500D     65
     126       0       0       2       0                               0D     66
     110      48       0       0       0                        01010000D     67
     110       0       0       1       0                               0D     68
     126      49       0       0       0                        01010500D     69
     126       0       0       2       0                               0D     70
     110      51       0       0       0                        01010000D     71
     110       0       0       1       0                               0D     72
     102      52       0       0       0                        01010500D     73
     102       0       0       1       0                               0D     74
     102      53       0       0       0                        01010000D     75
     102       0       0       1       0                               0D     76
     142      54       0       0       0                        00010500D     77
     142       0       0       1       0                               0D     78
     144      55       0       0       0                        00000000D     79
     144       0      -1       1       0                               0D     80
     128      56       0       0       0                        01010000D     81
     128       0       0       2       0                               0D     82
     126      58       0       0       0                        01010500D     83
     126       0       0       2       0                               0D     84
     110      60       0       0       0                        01010000D     85
     110       0       0       1       0                               0D     86
     126      61       0       0       0                        01010500D     87
     126       0       0       2       0                               0D     88
     110      63       0       0       0                        01010000D     89
     110       0       0       1       0                               0D     90
     126      64       0       0       0                        01010500D     91
     126       0       0       2       0                               0D     92
     110      66       0       0       0                        01010000D     93
     110       0       0       1       0                               0D     94
     126      67       0       0       0                        01010500D     95
     126       0       0       2       0                               0D     96
     110      69       0       0       0                        01010000D     97
     110       0       0       1       0                               0D     98
     102      70       0       0       0                        01010500D     99
     102       0       0       1       0                               0D    100
     102      71       0       0       0                        01010000D    101
     102       0       0       1       0                               0D    102
     142      72       0       0       0                        00010500D    103
     142       0       0       1       0                               0D    104
     144      73       0       0       0                        00000000D    105
     144       0      -1       1       0                               0D    106
     128      74       0       0       0                        01010000D    107
     128       0       0       2       0                               0D    108
     126      76       0       0       0                        01010500D    109
     126       0       0       2       0                               0D    110
     110      78       0       0       0                        01010000D    111
     110       0       0       1       0                               0D    112
     126      79       0       0       0                        01010500D    113
     126       0       0       2       0                               0D    114
     110      81       0       0       0                        01010000D    115
     110       0       0       1       0                               0D    116
     126      82       0       0       0                        01010500D    117
     126       0       0       2       0                               0D    118
     110      84       0       0       0                        01010000D    119
     110       0       0       1       0                               0D    120
     126      85       0       0       0                        01010500D    121
     126       0       0       2       0                               0D    122
     110      87       0       0       0                        01010000D    123
     110       0       0       1       0                               0D    124
     102      88       0       0       0                        01010500D    125
     102       0       0       1       0                               0D    126
     102      89       0       0       0                        01010000D    127
     102       0       0       1       0                               0D    128
     142      90       0       0       0                        00010500D    129
     142       0       0       1       0                               0D    130
     144      91       0       0       0                        00000000D    131
     144       0      -1       1       0                               0D    132
     128      92       0       0       0                        01010000D    133
     128       0       0       2       0                               0D    134
     126      94       0       0       0                        01010500D    135
     126       0       0       2       0                               0D    136
     110      96       0       0       0                        01010000D    137
     110       0       0       1       0                               0D    138
     126      97       0       0       0                        01010500D    139
     126       0       0       2       0                               0D    140
     110      99       0       0       0                        01010000D    141
     110       0       0       1       0                               0D    142
     126     100       0       0       0                        01010500D    143
     126       0       0       2       0                               0D    144
     110     102       0       0       0                        01010000D    145
     110       0       0       1       0                               0D    146
     126     103       0       0       0                        01010500D    147
     126       0       0       2       0                               0D    148
     110     105       0       0       0                        01010000D    149
     110       0       0       1       0                               0D    150
     102     106       0       0       0                        01010500D    151
     102       0       0       1       0                               0D    152
     102     107       0       0       0                        01010000D    153
     102       0       0       1       0                               0D    154
     142     108       0       0       0                        00010500D    155
     142       0       0       1       0                               0D    156
     144     109       0       0       0                        00000000D    157
     144       0      -1       1       0                               0D    158
     128     110       0       0       0                        01010000D    159
     128       0       0       2       0                               0D    160
     126     112       0       0       0                        01010500D    161
     126       0       0       2       0                               0D    162
     110     114       0       0       0                        01010000D    163
     110       0       0       1       0                               0D    164
     126     115       0       0       0                        01010500D    165
     126       0       0       2       0                               0D    166
     110     117       0       0       0                        01010000D    167
     110       0       0       1       0                               0D    168
     126     118       0       0       0                        01010500D    169
     126       0       0       2       0                               0D    170
     110     120       0       0       0                        01010000D    171
     110       0       0       1       0                               0D    172
     126     121       0       0       0                        01010500D    173
     126       0       0       2       0                               0D    174
     110     123       0       0       0                        01010000D    175
     110       0       0       1       0                               0D    176
     102     124       0       0       0                        01010500D    177
     102       0       0       1       0                               0D    178
     102     125       0       0       0                        01010000D    179
     102       0       0       1       0                               0D    180
     142     126       0       0       0                        00010500D    181
     142       0       0       1       0                               0D    182
     144     127       0       0       0                        00000000D    183
     144       0      -1       1       0                               0D    184
     128     128       0       0       0                        01010000D    185
     128       0       0       2       0                               0D    186
     126     130       0       0       0                        01010500D    187
     126       0       0       2       0                               0D    188
     110     132       0       0       0                        01010000D    189
     110       0       0       1       0                               0D    190
     126     133       0       0       0                        01010500D    191
     126       0       0       2       0                               0D    192
     110     135       0       0       0                        01010000D    193
     110       0       0       1       0                               0D    194
     126     136       0       0       0                        01010500D    195
     126       0       0       2       0                               0D    196
     110     138       0       0       0                        01010000D    197
     110       0       0       1       0                               0D    198
     126     139       0       0       0                        01010500D    199
     126       0       0       2       0                               0D    200
     110     141       0       0       0                        01010000D    201
     110       0       0       1       0                               0D    202
     102     142       0       0       0                        01010500D    203
     102       0       0       1       0                               0D    204
     102     143       0       0       0                        01010000D    205
     102       0       0       1       0                               0D    206
     142     144       0       0       0                        00010500D    207
     142       0       0       1       0                               0D    208
     144     145       0       0       0                        00000000D    209
     144       0      -1       1       0                               0D    210
     128     146       0       0       0                        01010000D    211
     128       0       0       2       0                               0D    212
     126     148       0       0       0                        01010500D    213
     126       0       0       2       0                               0D    214
     110     150       0       0       0                        01010000D    215
     110       0       0       1       0                               0D    216
     126     151       0       0       0                        01010500D    217
     126       0       0       2       0                               0D    218
     110     153       0       0       0                        01010000D    219
     110       0       0       1       0                               0D    220
     126     154       0       0       0                        01010500D    221
     126       0       0       2       0                               0D    222
     110     156       0       0       0                        01010000D    223
     110       0       0       1       0                               0D    224
     126     157       0       0       0                        01010500D    225
     126       0       0       2       0                               0D    226
     110     159       0       0       0                        01010000D    227
     110       0       0       1       0                               0D    228
     102     160       0       0       0                        01010500D    229
     102       0       0       1       0                               0D    230
     102     161       0       0       0                        01010000D    231
     102       0       0       1       0                               0D    232
     142     162       0       0       0                        00010500D    233
     142       0       0       1       0                               0D    234
     144     163       0       0       0                        00000000D    235
     144       0      -1       1       0                               0D    236
     128     164       0       0       0                        01010000D    237
     128       0       0       2       0                               0D    238
     126     166       0       0       0                        01010500D    239
     126       0       0       2       0                               0D    240
     110     168       0       0       0                        01010000D    241
     110       0       0       1       0                               0D    242
     126     169       0       0       0                        01010500D    243
     126       0       0       2       0                               0D    244
     110     171       0       0       0                        01010000D    245
     110       0       0       1       0                               0D    246
     126     172       0       0       0                        01010500D    247
     126       0       0       2       0                               0D    248
     110     174       0       0       0                        01010000D    249
     110       0       0       1       0                               0D    250
     126     175       0       0       0                        01010500D    251
     126       0       0       2       0                               0D    252
     110     177       0       0       0                        01010000D    253
     110       0       0       1       0                               0D    254
     102     178       0       0       0                        01010500D    255
     102       0       0       1       0                               0D    256
     102     179       0       0       0                        01010000D    257
     102       0       0       1       0                               0D    258
     142     180       0       0       0                        00010500D    259
     142       0       0       1       0                               0D    260
     144     181       0       0       0                        00000000D    261
     144       0      -1       1       0                               0D    262
     128     182       0       0       0                        01010000D    263
     128       0       0       2       0                               0D    264
     126     184       0       0       0                        01010500D    265
     126       0       0       2       0                               0D    266
     110     186       0       0       0                        01010000D    267
     110       0       0       1       0                               0D    268
     126     187       0       0       0                        01010500D    269
     126       0       0       2       0                               0D    270
     110     189       0       0       0                        01010000D    271
     110       0       0       1       0                               0D    272
     126     190       0       0       0                        01010500D    273
     126       0       0       2       0                               0D    274
     110     192       0       0       0                        01010000D    275
     110       0       0       1       0                               0D    276
     126     193       0       0       0                        01010500D    277
     126       0       0       2       0                               0D    278
     110     195       0       0       0                        01010000D    279
     110       0       0       1       0                               0D    280
     102     196       0       0       0                        01010500D    281
     102       0       0       1       0                               0D    282
     102     197       0       0       0                        01010000D    283
     102       0       0       1       0                               0D    284
     142     198       0       0       0                        00010500D    285
     142       0       0       1       0                               0D    286
     144     199       0       0       0                        00000000D    287
     144       0      -1       1       0                               0D    288
     128     200       0       0       0                        01010000D    289
     128       0       0       2       0                               0D    290
     126     202       0       0       0                        01010500D    291
     126       0       0       2       0                               0D    292
     110     204       0       0       0                        01010000D    293
     110       0       0       1       0                               0D    294
     126     205       0       0       0                        01010500D    295
     126       0       0       2       0                               0D    296
     110     207       0       0       0                        01010000D    297
     110       0       0       1       0                               0D    298
     126     208       0       0       0                        01010500D    299
     126       0       0       2       0                               0D    300
     110     210       0       0       0                        01010000D    301
     110       0       0       1       0                               0D    302
     126     211       0       0       0                        01010500D    303
     126       0       0       2       0                               0D    304
     110     213       0       0       0                        01010000D    305
     110       0       0       1       0                               0D    306
     102     214       0       0       0                        01010500D    307
     102       0       0       1       0                               0D    308
     102     215       0       0       0                        01010000D    309
     102       0       0       1       0                               0D    310
     142     216       0       0       0                        00010500D    311
     142       0       0       1       0                               0D    312
     144     217       0       0       0                        00000000D    313
     144       0      -1       1       0                               0D    314
     128     218       0       0       0                        01010000D    315
     128       0       0       2       0                               0D    316
     126     220       0       0       0                        01010500D    317
     126       0       0       2       0                               0D    318
     110     222       0       0       0                        01010000D    319
     110       0       0       1       0                               0D    320
     126     223       0       0       0                        01010500D    321
     126       0       0       2       0                               0D    322
     110     225       0       0       0                        01010000D    323
     110       0       0       1       0                               0D    324
     126     226       0       0       0                        01010500D    325
     126       0       0       2       0                               0D    326
     110     228       0       0       0                        01010000D    327
     110       0       0       1       0                               0D    328
     126     229       0       0       0                        01010500D    329
     126       0       0       2       0                               0D    330
     110     231       0       0       0                        01010000D    331
     110       0       0       1       0                               0D    332
     126     232       0       0       0                        01010500D    333
     126       0       0       2       0                               0D    334
     110     234       0       0       0                        01010000D    335
     110       0       0       1       0                               0D    336
     126     235       0       0       0                        01010500D    337
     126       0       0       2       0                               0D    338
     110     237       0       0       0                        01010000D    339
     110       0       0       1       0                               0D    340
     126     238       0       0       0                        01010500D    341
     126       0       0       2       0                               0D    342
     110     240       0       0       0                        01010000D    343
     110       0       0       1       0                               0D    344
     126     241       0       0       0                        01010500D    345
     126       0       0       2       0                               0D    346
     110     243       0       0       0                        01010000D    347
     110       0       0       1       0                               0D    348
     126     244       0       0       0                        01010500D    349
     126       0       0       2       0                               0D    350
     110     246       0       0       0                        01010000D    351
     110       0       0       1       0                               0D    352
     126     247       0       0       0                        01010500D    353
     126       0       0       2       0                               0D    354
     110     249       0       0       0                        01010000D    355
     110       0       0       1       0                               0D    356
     126     250       0       0       0                        01010500D    357
     126       0       0       2       0                               0D    358
     110     252       0       0       0                        01010000D    359
     110       0       0       1       0                               0D    360
     126     253       0       0       0                        01010500D    361
     126       0       0       2       0                               0D    362
     110     255       0       0       0                        01010000D    363
     110       0       0       1       0                               0D    364
     102     256       0       0       0                        01010500D    365
     102       0       0       1       0                               0D    366
     102     257       0       0       0                        01010000D    367
     102       0       0       1       0                               0D    368
     142     258       0       0       0                        00010500D    369
     142       0       0       1       0                               0D    370
     144     259       0       0       0                        00000000D    371
     144       0      -1       1       0                               0D    372
     128     260       0       0       0                        01010000D    373
     128       0       0       2       0                               0D    374
     126     262       0       0       0                        01010500D    375
     126       0       0       2       0                               0D    376
     110     264       0       0       0                        01010000D    377
     110       0       0       1       0                               0D    378
     126     265       0       0       0                        01010500D    379
     126       0       0       2       0                               0D    380
     110     267       0       0       0                        01010000D    381
     110       0       0       1       0                               0D    382
     126     268       0       0       0                        01010500D    383
     126       0       0       2       0                               0D    384
     110     270       0       0       0                        01010000D    385
     110       0       0       1       0                               0D    386
     126     271       0       0       0                        01010500D    387
     126       0       0       2       0                               0D    388
     110     273       0       0       0                        01010000D    389
     110       0       0       1       0                               0D    390
     126     274       0       0       0                        01010500D    391
     126       0       0       2       0                               0D    392
     110     276       0       0       0                        01010000D    393
     110       0       0       1       0                               0D    394
     126     277       0       0       0                        01010500D    395
     126       0       0       2       0                               0D    396
     110     279       0       0       0                        01010000D    397
     110       0       0       1       0                               0D    398
     126     280       0       0       0                        01010500D    399
     126       0       0       2       0                               0D    400
     110     282       0       0       0                        01010000D    401
     110       0       0       1       0                               0D    402
     126     283       0       0       0                        01010500D    403
     126       0       0       2       0                               0D    404
     110     285       0       0       0                        01010000D    405
     110       0       0       1       0                               0D    406
     126     286       0       0       0                        01010500D    407
     126       0       0       2       0                               0D    408
     110     288       0       0       0                        01010000D    409
     110       0       0       1       0                               0D    410
     126     289       0       0       0                        01010500D    411
     126       0       0       2       0                               0D    412
     110     291       0       0       0                        01010000D    413
     110       0       0       1       0                               0D    414
     126     292       0       0       0                        01010500D    415
     126       0       0       2       0                               0D    416
     110     294       0       0       0                        01010000D    417
     110       0       0       1       0                               0D    418
     126     295       0       0       0                        01010500D    419
     126       0       0       2       0                               0D    420
     110     297       0       0       0                        01010000D    421
     110       0       0       1       0                               0D    422
     102     298       0       0       0                        01010500D    423
     102       0       0       1       0                               0D    424
     102     299       0       0       0                        01010000D    425
     102       0       0       1       0                               0D    426
     142     300       0       0       0                        00010500D    427
     142       0       0       1       0                               0D    428
     144     301       0       0       0                        00000000D    429
     144       0      -1       1       0                               0D    430
314,100.,61.9607843137255,0.,;                                         1P      1
128,1,1,1,1,0,0,1,0,0,0.,0.,1.,1.,0.,0.,1.,1.,1.,1.,1.,1.,-12.,        3P      2
-9.5,0.,22.,-9.5,0.,-12.,-9.5,20.,22.,-9.5,20.,0.,1.,0.,1.;            3P      3
126,1,1,1,0,1,0,0.,0.,1.,1.,1.,1.,1.,0.,0.,1.,1.,0.,0.,1.,0.,          5P      4
0.,1.;                                                                 5P      5
110,22.,-9.5,0.,22.,-9.5,20.;                                          7P      6
126,1,1,1,0,1,0,0.,0.,1.,1.,1.,1.,1.,1.,0.,0.,1.,0.,0.,1.,0.,          9P      7
0.,1.;                                                                 9P      8
110,22.,-9.5,20.,-12.,-9.5,20.;                                       11P      9
126,1,1,1,0,1,0,0.,0.,1.,1.,1.,1.,0.,1.,0.,0.,0.,0.,0.,1.,0.,         13P     10
0.,1.;                                                                13P     11
110,-12.,-9.5,20.,-12.,-9.5,0.;                                       15P     12
126,1,1,1,0,1,0,0.,0.,1.,1.,1.,1.,0.,0.,0.,1.,0.,0.,0.,1.,0.,         17P     13
0.,1.;                                                                17P     14
110,-12.,-9.5,0.,22.,-9.5,0.;                                         19P     15
102,4,5,9,13,17;                                                      21P     16
102,4,7,11,15,19;                                                     23P     17
142,1,3,21,23,1;                                                      25P     18
144,3,1,0,25;                                                         27P     19
128,1,1,1,1,0,0,1,0,0,0.,0.,1.,1.,0.,0.,1.,1.,1.,1.,1.,1.,-12.,       29P     20
-9.5,0.,-12.,-9.5,20.,-12.,-7.5,0.,-12.,-7.5,20.,0.,1.,0.,1.;         29P     21
126,1,1,1,0,1,0,0.,0.,1.,1.,1.,1.,0.,0.,0.,1.,0.,0.,0.,1.,0.,         31P     22
0.,1.;                                                                31P     23
110,-12.,-9.5,0.,-12.,-9.5,20.;                                       33P     24
126,1,1,1,0,1,0,0.,0.,1.,1.,1.,1.,1.,0.,0.,1.,1.,0.,0.,1.,0.,         35P     25
0.,1.;                                                                35P     26
110,-12.,-9.5,20.,-12.,-7.5,20.;                                      37P     27
126,1,1,1,0,1,0,0.,0.,1.,1.,1.,1.,1.,1.,0.,0.,1.,0.,0.,1.,0.,         39P     28
0.,1.;                                                                39P     29
110,-12.,-7.5,20.,-12.,-7.5,0.;                                       41P     30
126,1,1,1,0,1,0,0.,0.,1.,1.,1.,1.,0.,1.,0.,0.,0.,0.,0.,1.,0.,         43P     31
0.,1.;                                                                43P     32
110,-12.,-7.5,0.,-12.,-9.5,0.;                                        45P     33
102,4,31,35,39,43;                                                    47P     34
102,4,33,37,41,45;                                                    49P     35
142,1,29,47,49,1;                                                     51P     36
144,29,1,0,51;                                                        53P     37
128,1,1,1,1,0,0,1,0,0,0.,0.,1.,1.,0.,0.,1.,1.,1.,1.,1.,1.,-15.,       55P     38
-7.5,20.,-15.,-7.5,0.,-12.,-7.5,20.,-12.,-7.5,0.,0.,1.,0.,1.;         55P     39
126,1,1,1,0,1,0,0.,0.,1.,1.,1.,1.,1.,1.,0.,0.,1.,0.,0.,1.,0.,         57P     40
0.,1.;                                                                57P     41
110,-12.,-7.5,0.,-12.,-7.5,20.;                                       59P     42
126,1,1,1,0,1,0,0.,0.,1.,1.,1.,1.,0.,1.,0.,0.,0.,0.,0.,1.,0.,         61P     43
0.,1.;                                                                61P     44
110,-12.,-7.5,20.,-15.,-7.5,20.;                                      63P     45
126,1,1,1,0,1,0,0.,0.,1.,1.,1.,1.,0.,0.,0.,1.,0.,0.,0.,1.,0.,         65P     46
0.,1.;                                                                65P     47
110,-15.,-7.5,20.,-15.,-7.5,0.;                                       67P     48
126,1,1,1,0,1,0,0.,0.,1.,1.,1.,1.,1.,0.,0.,1.,1.,0.,0.,1.,0.,         69P     49
0.,1.;                                                                69P     50
110,-15.,-7.5,0.,-12.,-7.5,0.;                                        71P     51
102,4,57,61,65,69;                                                    73P     52
102,4,59,63,67,71;                                                    75P     53
142,1,55,73,75,1;                                                     77P     54
144,55,1,0,77;                                                        79P     55
128,1,1,1,1,0,0,1,0,0,0.,0.,1.,1.,0.,0.,1.,1.,1.,1.,1.,1.,-15.,       81P     56
-12.,20.,-15.,-12.,0.,-15.,-7.5,20.,-15.,-7.5,0.,0.,1.,0.,1.;         81P     57
126,1,1,1,0,1,0,0.,0.,1.,1.,1.,1.,1.,1.,0.,0.,1.,0.,0.,1.,0.,         83P     58
0.,1.;                                                                83P     59
110,-15.,-7.5,0.,-15.,-7.5,20.;                                       85P     60
126,1,1,1,0,1,0,0.,0.,1.,1.,1.,1.,0.,1.,0.,0.,0.,0.,0.,1.,0.,         87P     61
0.,1.;                                                                87P     62
110,-15.,-7.5,20.,-15.,-12.,20.;                                      89P     63
126,1,1,1,0,1,0,0.,0.,1.,1.,1.,1.,0.,0.,0.,1.,0.,0.,0.,1.,0.,         91P     64
0.,1.;                                                                91P     65
110,-15.,-12.,20.,-15.,-12.,0.;                                       93P     66
126,1,1,1,0,1,0,0.,0.,1.,1.,1.,1.,1.,0.,0.,1.,1.,0.,0.,1.,0.,         95P     67
0.,1.;                                                                95P     68
110,-15.,-12.,0.,-15.,-7.5,0.;                                        97P     69
102,4,83,87,91,95;                                                    99P     70
102,4,85,89,93,97;                                                   101P     71
142,1,81,99,101,1;                                                   103P     72
144,81,1,0,103;                                                      105P     73
128,1,1,1,1,0,0,1,0,0,0.,0.,1.,1.,0.,0.,1.,1.,1.,1.,1.,1.,25.,       107P     74
-12.,0.,-15.,-12.,0.,25.,-12.,20.,-15.,-12.,20.,0.,1.,0.,1.;         107P     75
126,1,1,1,0,1,0,0.,0.,1.,1.,1.,1.,1.,0.,0.,1.,1.,0.,0.,1.,0.,        109P     76
0.,1.;                                                               109P     77
110,-15.,-12.,0.,-15.,-12.,20.;                                      111P     78
126,1,1,1,0,1,0,0.,0.,1.,1.,1.,1.,1.,1.,0.,0.,1.,0.,0.,1.,0.,        113P     79
0.,1.;                                                               113P     80
110,-15.,-12.,20.,25.,-12.,20.;                                      115P     81
126,1,1,1,0,1,0,0.,0.,1.,1.,1.,1.,0.,1.,0.,0.,0.,0.,0.,1.,0.,        117P     82
0.,1.;                                                               117P     83
110,25.,-12.,20.,25.,-12.,0.;                                        119P     84
126,1,1,1,0,1,0,0.,0.,1.,1.,1.,1.,0.,0.,0.,1.,0.,0.,0.,1.,0.,        121P     85
0.,1.;                                                               121P     86
110,25.,-12.,0.,-15.,-12.,0.;                                        123P     87
102,4,109,113,117,121;                                               125P     88
102,4,111,115,119,123;                                               127P     89
142,1,107,125,127,1;                                                 129P     90
144,107,1,0,129;                                                     131P     91
128,1,1,1,1,0,0,1,0,0,0.,0.,1.,1.,0.,0.,1.,1.,1.,1.,1.,1.,25.,       133P     92
13.5,0.,25.,-12.,0.,25.,13.5,20.,25.,-12.,20.,0.,1.,0.,1.;           133P     93
126,1,1,1,0,1,0,0.,0.,1.,1.,1.,1.,1.,0.,0.,1.,1.,0.,0.,1.,0.,        135P     94
0.,1.;                                                               135P     95
110,25.,-12.,0.,25.,-12.,20.;                                        137P     96
126,1,1,1,0,1,0,0.,0.,1.,1.,1.,1.,1.,1.,0.,0.,1.,0.,0.,1.,0.,        139P     97
0.,1.;                                                               139P     98
110,25.,-12.,20.,25.,13.5,20.;                                       141P     99
126,1,1,1,0,1,0,0.,0.,1.,1.,1.,1.,0.,1.,0.,0.,0.,0.,0.,1.,0.,        143P    100
0.,1.;                                                               143P    101
110,25.,13.5,20.,25.,13.5,0.;                                        145P    102
126,1,1,1,0,1,0,0.,0.,1.,1.,1.,1.,0.,0.,0.,1.,0.,0.,0.,1.,0.,        147P    103
0.,1.;                                                               147P    104
110,25.,13.5,0.,25.,-12.,0.;                                         149P    105
102,4,135,139,143,147;                                               151P    106
102,4,137,141,145,149;                                               153P    107
142,1,133,151,153,1;                                                 155P    108
144,133,1,0,155;                                                     157P    109
128,1,1,1,1,0,0,1,0,0,0.,0.,1.,1.,0.,0.,1.,1.,1.,1.,1.,1.,-24.,      159P    110
13.5,20.,-24.,13.5,0.,25.,13.5,20.,25.,13.5,0.,0.,1.,0.,1.;          159P    111
126,1,1,1,0,1,0,0.,0.,1.,1.,1.,1.,1.,1.,0.,0.,1.,0.,0.,1.,0.,        161P    112
0.,1.;                                                               161P    113
110,25.,13.5,0.,25.,13.5,20.;                                        163P    114
126,1,1,1,0,1,0,0.,0.,1.,1.,1.,1.,0.,1.,0.,0.,0.,0.,0.,1.,0.,        165P    115
0.,1.;                                                               165P    116
110,25.,13.5,20.,-24.,13.5,20.;                                      167P    117
126,1,1,1,0,1,0,0.,0.,1.,1.,1.,1.,0.,0.,0.,1.,0.,0.,0.,1.,0.,        169P    118
0.,1.;                                                               169P    119
110,-24.,13.5,20.,-24.,13.5,0.;                                      171P    120
126,1,1,1,0,1,0,0.,0.,1.,1.,1.,1.,1.,0.,0.,1.,1.,0.,0.,1.,0.,        173P    121
0.,1.;                                                               173P    122
110,-24.,13.5,0.,25.,13.5,0.;                                        175P    123
102,4,161,165,169,173;                                               177P    124
102,4,163,167,171,175;                                               179P    125
142,1,159,177,179,1;                                                 181P    126
144,159,1,0,181;                                                     183P    127
128,1,1,1,1,0,0,1,0,0,0.,0.,1.,1.,0.,0.,1.,1.,1.,1.,1.,1.,-24.,      185P    128
7.5,20.,-24.,7.5,0.,-24.,13.5,20.,-24.,13.5,0.,0.,1.,0.,1.;          185P    129
126,1,1,1,0,1,0,0.,0.,1.,1.,1.,1.,1.,1.,0.,0.,1.,0.,0.,1.,0.,        187P    130
0.,1.;                                                               187P    131
110,-24.,13.5,0.,-24.,13.5,20.;                                      189P    132
126,1,1,1,0,1,0,0.,0.,1.,1.,1.,1.,0.,1.,0.,0.,0.,0.,0.,1.,0.,        191P    133
0.,1.;                                                               191P    134
110,-24.,13.5,20.,-24.,7.5,20.;                                      193P    135
126,1,1,1,0,1,0,0.,0.,1.,1.,1.,1.,0.,0.,0.,1.,0.,0.,0.,1.,0.,        195P    136
0.,1.;                                                               195P    137
110,-24.,7.5,20.,-24.,7.5,0.;                                        197P    138
126,1,1,1,0,1,0,0.,0.,1.,1.,1.,1.,1.,0.,0.,1.,1.,0.,0.,1.,0.,        199P    139
0.,1.;                                                               199P    140
110,-24.,7.5,0.,-24.,13.5,0.;                                        201P    141
102,4,187,191,195,199;                                               203P    142
102,4,189,193,197,201;                                               205P    143
142,1,185,203,205,1;                                                 207P    144
144,185,1,0,207;                                                     209P    145
128,1,1,1,1,0,0,1,0,0,0.,0.,1.,1.,0.,0.,1.,1.,1.,1.,1.,1.,-24.,      211P    146
7.5,0.,-24.,7.5,20.,-22.,7.5,0.,-22.,7.5,20.,0.,1.,0.,1.;            211P    147
126,1,1,1,0,1,0,0.,0.,1.,1.,1.,1.,0.,0.,0.,1.,0.,0.,0.,1.,0.,        213P    148
0.,1.;                                                               213P    149
110,-24.,7.5,0.,-24.,7.5,20.;                                        215P    150
126,1,1,1,0,1,0,0.,0.,1.,1.,1.,1.,1.,0.,0.,1.,1.,0.,0.,1.,0.,        217P    151
0.,1.;                                                               217P    152
110,-24.,7.5,20.,-22.,7.5,20.;                                       219P    153
126,1,1,1,0,1,0,0.,0.,1.,1.,1.,1.,1.,1.,0.,0.,1.,0.,0.,1.,0.,        221P    154
0.,1.;                                                               221P    155
110,-22.,7.5,20.,-22.,7.5,0.;                                        223P    156
126,1,1,1,0,1,0,0.,0.,1.,1.,1.,1.,0.,1.,0.,0.,0.,0.,0.,1.,0.,        225P    157
0.,1.;                                                               225P    158
110,-22.,7.5,0.,-24.,7.5,0.;                                         227P    159
102,4,213,217,221,225;                                               229P    160
102,4,215,219,223,227;                                               231P    161
142,1,211,229,231,1;                                                 233P    162
144,211,1,0,233;                                                     235P    163
128,1,1,1,1,0,0,1,0,0,0.,0.,1.,1.,0.,0.,1.,1.,1.,1.,1.,1.,-22.,      237P    164
7.5,0.,-22.,7.5,20.,-22.,9.5,0.,-22.,9.5,20.,0.,1.,0.,1.;            237P    165
126,1,1,1,0,1,0,0.,0.,1.,1.,1.,1.,0.,0.,0.,1.,0.,0.,0.,1.,0.,        239P    166
0.,1.;                                                               239P    167
110,-22.,7.5,0.,-22.,7.5,20.;                                        241P    168
126,1,1,1,0,1,0,0.,0.,1.,1.,1.,1.,1.,0.,0.,1.,1.,0.,0.,1.,0.,        243P    169
0.,1.;                                                               243P    170
110,-22.,7.5,20.,-22.,9.5,20.;                                       245P    171
126,1,1,1,0,1,0,0.,0.,1.,1.,1.,1.,1.,1.,0.,0.,1.,0.,0.,1.,0.,        247P    172
0.,1.;                                                               247P    173
110,-22.,9.5,20.,-22.,9.5,0.;                                        249P    174
126,1,1,1,0,1,0,0.,0.,1.,1.,1.,1.,0.,1.,0.,0.,0.,0.,0.,1.,0.,        251P    175
0.,1.;                                                               251P    176
110,-22.,9.5,0.,-22.,7.5,0.;                                         253P    177
102,4,239,243,247,251;                                               255P    178
102,4,241,245,249,253;                                               257P    179
142,1,237,255,257,1;                                                 259P    180
144,237,1,0,259;                                                     261P    181
128,1,1,1,1,0,0,1,0,0,0.,0.,1.,1.,0.,0.,1.,1.,1.,1.,1.,1.,-22.,      263P    182
9.5,0.,-22.,9.5,20.,22.,9.5,0.,22.,9.5,20.,0.,1.,0.,1.;              263P    183
126,1,1,1,0,1,0,0.,0.,1.,1.,1.,1.,0.,0.,0.,1.,0.,0.,0.,1.,0.,        265P    184
0.,1.;                                                               265P    185
110,-22.,9.5,0.,-22.,9.5,20.;                                        267P    186
126,1,1,1,0,1,0,0.,0.,1.,1.,1.,1.,1.,0.,0.,1.,1.,0.,0.,1.,0.,        269P    187
0.,1.;                                                               269P    188
110,-22.,9.5,20.,22.,9.5,20.;                                        271P    189
126,1,1,1,0,1,0,0.,0.,1.,1.,1.,1.,1.,1.,0.,0.,1.,0.,0.,1.,0.,        273P    190
0.,1.;                                                               273P    191
110,22.,9.5,20.,22.,9.5,0.;                                          275P    192
126,1,1,1,0,1,0,0.,0.,1.,1.,1.,1.,0.,1.,0.,0.,0.,0.,0.,1.,0.,        277P    193
0.,1.;                                                               277P    194
110,22.,9.5,0.,-22.,9.5,0.;                                          279P    195
102,4,265,269,273,277;                                               281P    196
102,4,267,271,275,279;                                               283P    197
142,1,263,281,283,1;                                                 285P    198
144,263,1,0,285;                                                     287P    199
128,1,1,1,1,0,0,1,0,0,0.,0.,1.,1.,0.,0.,1.,1.,1.,1.,1.,1.,22.,       289P    200
-9.5,20.,22.,-9.5,0.,22.,9.5,20.,22.,9.5,0.,0.,1.,0.,1.;             289P    201
126,1,1,1,0,1,0,0.,0.,1.,1.,1.,1.,1.,1.,0.,0.,1.,0.,0.,1.,0.,        291P    202
0.,1.;                                                               291P    203
110,22.,9.5,0.,22.,9.5,20.;                                          293P    204
126,1,1,1,0,1,0,0.,0.,1.,1.,1.,1.,0.,1.,0.,0.,0.,0.,0.,1.,0.,        295P    205
0.,1.;                                                               295P    206
110,22.,9.5,20.,22.,-9.5,20.;                                        297P    207
126,1,1,1,0,1,0,0.,0.,1.,1.,1.,1.,0.,0.,0.,1.,0.,0.,0.,1.,0.,        299P    208
0.,1.;                                                               299P    209
110,22.,-9.5,20.,22.,-9.5,0.;                                        301P    210
126,1,1,1,0,1,0,0.,0.,1.,1.,1.,1.,1.,0.,0.,1.,1.,0.,0.,1.,0.,        303P    211
0.,1.;                                                               303P    212
110,22.,-9.5,0.,22.,9.5,0.;                                          305P    213
102,4,291,295,299,303;                                               307P    214
102,4,293,297,301,305;                                               309P    215
142,1,289,307,309,1;                                                 311P    216
144,289,1,0,311;                                                     313P    217
128,1,1,1,1,0,0,1,0,0,0.,0.,1.,1.,0.,0.,1.,1.,1.,1.,1.,1.,-24.,      315P    218
-12.,20.,25.,-12.,20.,-24.,13.5,20.,25.,13.5,20.,0.,1.,0.,1.;        315P    219
126,1,1,1,0,1,0,0.,0.,1.,1.,1.,1.,0.93877551,0.098039216,0.,         317P    220
0.244897959,0.098039216,0.,0.,1.,0.,0.,1.;                           317P    221
110,22.,-9.5,20.,-12.,-9.5,20.;                                      319P    222
126,1,1,1,0,1,0,0.,0.,1.,1.,1.,1.,0.244897959,0.098039216,0.,        321P    223
0.244897959,0.176470588,0.,0.,1.,0.,0.,1.;                           321P    224
110,-12.,-9.5,20.,-12.,-7.5,20.;                                     323P    225
126,1,1,1,0,1,0,0.,0.,1.,1.,1.,1.,0.244897959,0.176470588,0.,        325P    226
0.183673469,0.176470588,0.,0.,1.,0.,0.,1.;                           325P    227
110,-12.,-7.5,20.,-15.,-7.5,20.;                                     327P    228
126,1,1,1,0,1,0,0.,0.,1.,1.,1.,1.,0.183673469,0.176470588,0.,        329P    229
0.183673469,0.,0.,0.,1.,0.,0.,1.;                                    329P    230
110,-15.,-7.5,20.,-15.,-12.,20.;                                     331P    231
126,1,1,1,0,1,0,0.,0.,1.,1.,1.,1.,0.183673469,0.,0.,1.,0.,0.,        333P    232
0.,1.,0.,0.,1.;                                                      333P    233
110,-15.,-12.,20.,25.,-12.,20.;                                      335P    234
126,1,1,1,0,1,0,0.,0.,1.,1.,1.,1.,1.,0.,0.,1.,1.,0.,0.,1.,0.,        337P    235
0.,1.;                                                               337P    236
110,25.,-12.,20.,25.,13.5,20.;                                       339P    237
126,1,1,1,0,1,0,0.,0.,1.,1.,1.,1.,1.,1.,0.,0.,1.,0.,0.,1.,0.,        341P    238
0.,1.;                                                               341P    239
110,25.,13.5,20.,-24.,13.5,20.;                                      343P    240
126,1,1,1,0,1,0,0.,0.,1.,1.,1.,1.,0.,1.,0.,0.,0.764705882,0.,        345P    241
0.,1.,0.,0.,1.;                                                      345P    242
110,-24.,13.5,20.,-24.,7.5,20.;                                      347P    243
126,1,1,1,0,1,0,0.,0.,1.,1.,1.,1.,0.,0.764705882,0.,                 349P    244
0.040816327,0.764705882,0.,0.,1.,0.,0.,1.;                           349P    245
110,-24.,7.5,20.,-22.,7.5,20.;                                       351P    246
126,1,1,1,0,1,0,0.,0.,1.,1.,1.,1.,0.040816327,0.764705882,0.,        353P    247
0.040816327,0.843137255,0.,0.,1.,0.,0.,1.;                           353P    248
110,-22.,7.5,20.,-22.,9.5,20.;                                       355P    249
126,1,1,1,0,1,0,0.,0.,1.,1.,1.,1.,0.040816327,0.843137255,0.,        357P    250
0.93877551,0.843137255,0.,0.,1.,0.,0.,1.;                            357P    251
110,-22.,9.5,20.,22.,9.5,20.;                                        359P    252
126,1,1,1,0,1,0,0.,0.,1.,1.,1.,1.,0.93877551,0.843137255,0.,         361P    253
0.93877551,0.098039216,0.,0.,1.,0.,0.,1.;                            361P    254
110,22.,9.5,20.,22.,-9.5,20.;                                        363P    255
102,12,317,321,325,329,333,337,341,345,349,353,357,361;              365P    256
102,12,319,323,327,331,335,339,343,347,351,355,359,363;              367P    257
142,1,315,365,367,1;                                                 369P    258
144,315,1,0,369;                                                     371P    259
128,1,1,1,1,0,0,1,0,0,0.,0.,1.,1.,0.,0.,1.,1.,1.,1.,1.,1.,-24.,      373P    260
-12.,0.,25.,-12.,0.,-24.,13.5,0.,25.,13.5,0.,0.,1.,0.,1.;            373P    261
126,1,1,1,0,1,0,0.,0.,1.,1.,1.,1.,0.244897959,0.098039216,0.,        375P    262
0.244897959,0.176470588,0.,0.,1.,0.,0.,1.;                           375P    263
110,-12.,-9.5,0.,-12.,-7.5,0.;                                       377P    264
126,1,1,1,0,1,0,0.,0.,1.,1.,1.,1.,0.244897959,0.176470588,0.,        379P    265
0.183673469,0.176470588,0.,0.,1.,0.,0.,1.;                           379P    266
110,-12.,-7.5,0.,-15.,-7.5,0.;                                       381P    267
126,1,1,1,0,1,0,0.,0.,1.,1.,1.,1.,0.183673469,0.176470588,0.,        383P    268
0.183673469,0.,0.,0.,1.,0.,0.,1.;                                    383P    269
110,-15.,-7.5,0.,-15.,-12.,0.;                                       385P    270
126,1,1,1,0,1,0,0.,0.,1.,1.,1.,1.,0.183673469,0.,0.,1.,0.,0.,        387P    271
0.,1.,0.,0.,1.;                                                      387P    272
110,-15.,-12.,0.,25.,-12.,0.;                                        389P    273
126,1,1,1,0,1,0,0.,0.,1.,1.,1.,1.,1.,0.,0.,1.,1.,0.,0.,1.,0.,        391P    274
0.,1.;                                                               391P    275
110,25.,-12.,0.,25.,13.5,0.;                                         393P    276
126,1,1,1,0,1,0,0.,0.,1.,1.,1.,1.,1.,1.,0.,0.,1.,0.,0.,1.,0.,        395P    277
0.,1.;                                                               395P    278
110,25.,13.5,0.,-24.,13.5,0.;                                        397P    279
126,1,1,1,0,1,0,0.,0.,1.,1.,1.,1.,0.,1.,0.,0.,0.764705882,0.,        399P    280
0.,1.,0.,0.,1.;                                                      399P    281
110,-24.,13.5,0.,-24.,7.5,0.;                                        401P    282
126,1,1,1,0,1,0,0.,0.,1.,1.,1.,1.,0.,0.764705882,0.,                 403P    283
0.040816327,0.764705882,0.,0.,1.,0.,0.,1.;                           403P    284
110,-24.,7.5,0.,-22.,7.5,0.;                                         405P    285
126,1,1,1,0,1,0,0.,0.,1.,1.,1.,1.,0.040816327,0.764705882,0.,        407P    286
0.040816327,0.843137255,0.,0.,1.,0.,0.,1.;                           407P    287
110,-22.,7.5,0.,-22.,9.5,0.;                                         409P    288
126,1,1,1,0,1,0,0.,0.,1.,1.,1.,1.,0.040816327,0.843137255,0.,        411P    289
0.93877551,0.843137255,0.,0.,1.,0.,0.,1.;                            411P    290
110,-22.,9.5,0.,22.,9.5,0.;                                          413P    291
126,1,1,1,0,1,0,0.,0.,1.,1.,1.,1.,0.93877551,0.843137255,0.,         415P    292
0.93877551,0.098039216,0.,0.,1.,0.,0.,1.;                            415P    293
110,22.,9.5,0.,22.,-9.5,0.;                                          417P    294
126,1,1,1,0,1,0,0.,0.,1.,1.,1.,1.,0.93877551,0.098039216,0.,         419P    295
0.244897959,0.098039216,0.,0.,1.,0.,0.,1.;                           419P    296
110,22.,-9.5,0.,-12.,-9.5,0.;                                        421P    297
102,12,375,379,383,387,391,395,399,403,407,411,415,419;              423P    298
102,12,377,381,385,389,393,397,401,405,409,413,417,421;              425P    299
142,1,373,423,425,1;                                                 427P    300
144,373,1,0,427;                                                     429P    301
S      1G      4D    430P    301                                        T      1
