SolidWorks IGES file using analytic representation for surfaces         S      1
1H,,1H;,13Hbattery_clip2,59HZ:\Dropbox\Floatsat\Mechanical_Models\Igs\baG      1
ttery_clip2.IGS,15HSolidWorks 2016,15HSolidWorks 2016,32,308,15,308,15, G      2
13Hbattery_clip2,1.,2,2HMM,50,0.125,13H171214.023043,1E-008,499990.,13HMG      3
arcoSanroman,,11,0,13H171214.023043;                                    G      4
     314       1       0       0       0                        00000200D      1
     314       0       8       1       0                               0D      2
     128       2       0       0       0                        01010000D      3
     128       0       0       4       0                               0D      4
     126       6       0       0       0                        01010500D      5
     126       0       0       2       0                               0D      6
     110       8       0       0       0                        01010000D      7
     110       0       0       2       0                               0D      8
     126      10       0       0       0                        01010500D      9
     126       0       0       2       0                               0D     10
     110      12       0       0       0                        01010000D     11
     110       0       0       2       0                               0D     12
     126      14       0       0       0                        01010500D     13
     126       0       0       2       0                               0D     14
     110      16       0       0       0                        01010000D     15
     110       0       0       2       0                               0D     16
     126      18       0       0       0                        01010500D     17
     126       0       0       2       0                               0D     18
     110      20       0       0       0                        01010000D     19
     110       0       0       2       0                               0D     20
     102      22       0       0       0                        01010500D     21
     102       0       0       1       0                               0D     22
     102      23       0       0       0                        01010000D     23
     102       0       0       1       0                               0D     24
     142      24       0       0       0                        00010500D     25
     142       0       0       1       0                               0D     26
     144      25       0       0       0                        00000000D     27
     144       0      -1       1       0                               0D     28
     128      26       0       0       0                        01010000D     29
     128       0       0       4       0                               0D     30
     126      30       0       0       0                        01010500D     31
     126       0       0       2       0                               0D     32
     110      32       0       0       0                        01010000D     33
     110       0       0       2       0                               0D     34
     126      34       0       0       0                        01010500D     35
     126       0       0       2       0                               0D     36
     110      36       0       0       0                        01010000D     37
     110       0       0       2       0                               0D     38
     126      38       0       0       0                        01010500D     39
     126       0       0       2       0                               0D     40
     110      40       0       0       0                        01010000D     41
     110       0       0       2       0                               0D     42
     126      42       0       0       0                        01010500D     43
     126       0       0       2       0                               0D     44
     110      44       0       0       0                        01010000D     45
     110       0       0       2       0                               0D     46
     102      46       0       0       0                        01010500D     47
     102       0       0       1       0                               0D     48
     102      47       0       0       0                        01010000D     49
     102       0       0       1       0                               0D     50
     142      48       0       0       0                        00010500D     51
     142       0       0       1       0                               0D     52
     144      49       0       0       0                        00000000D     53
     144       0      -1       1       0                               0D     54
     128      50       0       0       0                        01010000D     55
     128       0       0       4       0                               0D     56
     126      54       0       0       0                        01010500D     57
     126       0       0       2       0                               0D     58
     110      56       0       0       0                        01010000D     59
     110       0       0       2       0                               0D     60
     126      58       0       0       0                        01010500D     61
     126       0       0       2       0                               0D     62
     110      60       0       0       0                        01010000D     63
     110       0       0       2       0                               0D     64
     126      62       0       0       0                        01010500D     65
     126       0       0       2       0                               0D     66
     110      64       0       0       0                        01010000D     67
     110       0       0       2       0                               0D     68
     126      66       0       0       0                        01010500D     69
     126       0       0       2       0                               0D     70
     110      68       0       0       0                        01010000D     71
     110       0       0       1       0                               0D     72
     126      69       0       0       0                        01010500D     73
     126       0       0       2       0                               0D     74
     110      71       0       0       0                        01010000D     75
     110       0       0       1       0                               0D     76
     126      72       0       0       0                        01010500D     77
     126       0       0       2       0                               0D     78
     110      74       0       0       0                        01010000D     79
     110       0       0       2       0                               0D     80
     126      76       0       0       0                        01010500D     81
     126       0       0       2       0                               0D     82
     110      78       0       0       0                        01010000D     83
     110       0       0       2       0                               0D     84
     126      80       0       0       0                        01010500D     85
     126       0       0       2       0                               0D     86
     110      82       0       0       0                        01010000D     87
     110       0       0       2       0                               0D     88
     126      84       0       0       0                        01010500D     89
     126       0       0       2       0                               0D     90
     110      86       0       0       0                        01010000D     91
     110       0       0       2       0                               0D     92
     126      88       0       0       0                        01010500D     93
     126       0       0       2       0                               0D     94
     110      90       0       0       0                        01010000D     95
     110       0       0       2       0                               0D     96
     126      92       0       0       0                        01010500D     97
     126       0       0       2       0                               0D     98
     110      94       0       0       0                        01010000D     99
     110       0       0       1       0                               0D    100
     126      95       0       0       0                        01010500D    101
     126       0       0       2       0                               0D    102
     110      97       0       0       0                        01010000D    103
     110       0       0       1       0                               0D    104
     102      98       0       0       0                        01010500D    105
     102       0       0       1       0                               0D    106
     102      99       0       0       0                        01010000D    107
     102       0       0       1       0                               0D    108
     142     100       0       0       0                        00010500D    109
     142       0       0       1       0                               0D    110
     144     101       0       0       0                        00000000D    111
     144       0      -1       1       0                               0D    112
     128     102       0       0       0                        01010000D    113
     128       0       0       4       0                               0D    114
     126     106       0       0       0                        01010500D    115
     126       0       0       2       0                               0D    116
     110     108       0       0       0                        01010000D    117
     110       0       0       1       0                               0D    118
     126     109       0       0       0                        01010500D    119
     126       0       0       2       0                               0D    120
     110     111       0       0       0                        01010000D    121
     110       0       0       1       0                               0D    122
     126     112       0       0       0                        01010500D    123
     126       0       0       2       0                               0D    124
     110     114       0       0       0                        01010000D    125
     110       0       0       1       0                               0D    126
     126     115       0       0       0                        01010500D    127
     126       0       0       2       0                               0D    128
     110     117       0       0       0                        01010000D    129
     110       0       0       2       0                               0D    130
     102     119       0       0       0                        01010500D    131
     102       0       0       1       0                               0D    132
     102     120       0       0       0                        01010000D    133
     102       0       0       1       0                               0D    134
     142     121       0       0       0                        00010500D    135
     142       0       0       1       0                               0D    136
     144     122       0       0       0                        00000000D    137
     144       0      -1       1       0                               0D    138
     128     123       0       0       0                        01010000D    139
     128       0       0       4       0                               0D    140
     126     127       0       0       0                        01010500D    141
     126       0       0       2       0                               0D    142
     110     129       0       0       0                        01010000D    143
     110       0       0       2       0                               0D    144
     126     131       0       0       0                        01010500D    145
     126       0       0       2       0                               0D    146
     110     133       0       0       0                        01010000D    147
     110       0       0       2       0                               0D    148
     126     135       0       0       0                        01010500D    149
     126       0       0       2       0                               0D    150
     110     137       0       0       0                        01010000D    151
     110       0       0       2       0                               0D    152
     126     139       0       0       0                        01010500D    153
     126       0       0       2       0                               0D    154
     110     141       0       0       0                        01010000D    155
     110       0       0       2       0                               0D    156
     126     143       0       0       0                        01010500D    157
     126       0       0       2       0                               0D    158
     110     145       0       0       0                        01010000D    159
     110       0       0       2       0                               0D    160
     102     147       0       0       0                        01010500D    161
     102       0       0       1       0                               0D    162
     102     148       0       0       0                        01010000D    163
     102       0       0       1       0                               0D    164
     142     149       0       0       0                        00010500D    165
     142       0       0       1       0                               0D    166
     144     150       0       0       0                        00000000D    167
     144       0      -1       1       0                               0D    168
     128     151       0       0       0                        01010000D    169
     128       0       0       4       0                               0D    170
     126     155       0       0       0                        01010500D    171
     126       0       0       2       0                               0D    172
     110     157       0       0       0                        01010000D    173
     110       0       0       1       0                               0D    174
     126     158       0       0       0                        01010500D    175
     126       0       0       2       0                               0D    176
     110     160       0       0       0                        01010000D    177
     110       0       0       2       0                               0D    178
     126     162       0       0       0                        01010500D    179
     126       0       0       2       0                               0D    180
     110     164       0       0       0                        01010000D    181
     110       0       0       1       0                               0D    182
     126     165       0       0       0                        01010500D    183
     126       0       0       2       0                               0D    184
     110     167       0       0       0                        01010000D    185
     110       0       0       1       0                               0D    186
     126     168       0       0       0                        01010500D    187
     126       0       0       2       0                               0D    188
     110     170       0       0       0                        01010000D    189
     110       0       0       1       0                               0D    190
     102     171       0       0       0                        01010500D    191
     102       0       0       1       0                               0D    192
     102     172       0       0       0                        01010000D    193
     102       0       0       1       0                               0D    194
     142     173       0       0       0                        00010500D    195
     142       0       0       1       0                               0D    196
     144     174       0       0       0                        00000000D    197
     144       0      -1       1       0                               0D    198
     128     175       0       0       0                        01010000D    199
     128       0       0       4       0                               0D    200
     126     179       0       0       0                        01010500D    201
     126       0       0       2       0                               0D    202
     110     181       0       0       0                        01010000D    203
     110       0       0       2       0                               0D    204
     126     183       0       0       0                        01010500D    205
     126       0       0       2       0                               0D    206
     110     185       0       0       0                        01010000D    207
     110       0       0       2       0                               0D    208
     126     187       0       0       0                        01010500D    209
     126       0       0       2       0                               0D    210
     110     189       0       0       0                        01010000D    211
     110       0       0       2       0                               0D    212
     126     191       0       0       0                        01010500D    213
     126       0       0       2       0                               0D    214
     110     193       0       0       0                        01010000D    215
     110       0       0       2       0                               0D    216
     102     195       0       0       0                        01010500D    217
     102       0       0       1       0                               0D    218
     102     196       0       0       0                        01010000D    219
     102       0       0       1       0                               0D    220
     142     197       0       0       0                        00010500D    221
     142       0       0       1       0                               0D    222
     144     198       0       0       0                        00000000D    223
     144       0      -1       1       0                               0D    224
     128     199       0       0       0                        01010000D    225
     128       0       0       4       0                               0D    226
     126     203       0       0       0                        01010500D    227
     126       0       0       2       0                               0D    228
     110     205       0       0       0                        01010000D    229
     110       0       0       2       0                               0D    230
     126     207       0       0       0                        01010500D    231
     126       0       0       2       0                               0D    232
     110     209       0       0       0                        01010000D    233
     110       0       0       1       0                               0D    234
     126     210       0       0       0                        01010500D    235
     126       0       0       2       0                               0D    236
     110     212       0       0       0                        01010000D    237
     110       0       0       1       0                               0D    238
     126     213       0       0       0                        01010500D    239
     126       0       0       2       0                               0D    240
     110     215       0       0       0                        01010000D    241
     110       0       0       1       0                               0D    242
     102     216       0       0       0                        01010500D    243
     102       0       0       1       0                               0D    244
     102     217       0       0       0                        01010000D    245
     102       0       0       1       0                               0D    246
     142     218       0       0       0                        00010500D    247
     142       0       0       1       0                               0D    248
     144     219       0       0       0                        00000000D    249
     144       0      -1       1       0                               0D    250
     128     220       0       0       0                        01010000D    251
     128       0       0       4       0                               0D    252
     126     224       0       0       0                        01010500D    253
     126       0       0       2       0                               0D    254
     110     226       0       0       0                        01010000D    255
     110       0       0       1       0                               0D    256
     126     227       0       0       0                        01010500D    257
     126       0       0       2       0                               0D    258
     110     229       0       0       0                        01010000D    259
     110       0       0       2       0                               0D    260
     126     231       0       0       0                        01010500D    261
     126       0       0       2       0                               0D    262
     110     233       0       0       0                        01010000D    263
     110       0       0       1       0                               0D    264
     126     234       0       0       0                        01010500D    265
     126       0       0       2       0                               0D    266
     110     236       0       0       0                        01010000D    267
     110       0       0       1       0                               0D    268
     102     237       0       0       0                        01010500D    269
     102       0       0       1       0                               0D    270
     102     238       0       0       0                        01010000D    271
     102       0       0       1       0                               0D    272
     142     239       0       0       0                        00010500D    273
     142       0       0       1       0                               0D    274
     144     240       0       0       0                        00000000D    275
     144       0      -1       1       0                               0D    276
     128     241       0       0       0                        01010000D    277
     128       0       0       4       0                               0D    278
     126     245       0       0       0                        01010500D    279
     126       0       0       2       0                               0D    280
     110     247       0       0       0                        01010000D    281
     110       0       0       2       0                               0D    282
     126     249       0       0       0                        01010500D    283
     126       0       0       2       0                               0D    284
     110     251       0       0       0                        01010000D    285
     110       0       0       2       0                               0D    286
     126     253       0       0       0                        01010500D    287
     126       0       0       2       0                               0D    288
     110     255       0       0       0                        01010000D    289
     110       0       0       2       0                               0D    290
     126     257       0       0       0                        01010500D    291
     126       0       0       2       0                               0D    292
     110     259       0       0       0                        01010000D    293
     110       0       0       2       0                               0D    294
     126     261       0       0       0                        01010500D    295
     126       0       0       2       0                               0D    296
     110     263       0       0       0                        01010000D    297
     110       0       0       2       0                               0D    298
     126     265       0       0       0                        01010500D    299
     126       0       0       2       0                               0D    300
     110     267       0       0       0                        01010000D    301
     110       0       0       2       0                               0D    302
     126     269       0       0       0                        01010500D    303
     126       0       0       2       0                               0D    304
     110     271       0       0       0                        01010000D    305
     110       0       0       2       0                               0D    306
     126     273       0       0       0                        01010500D    307
     126       0       0       2       0                               0D    308
     110     275       0       0       0                        01010000D    309
     110       0       0       2       0                               0D    310
     102     277       0       0       0                        01010500D    311
     102       0       0       1       0                               0D    312
     102     278       0       0       0                        01010000D    313
     102       0       0       1       0                               0D    314
     142     279       0       0       0                        00010500D    315
     142       0       0       1       0                               0D    316
     144     280       0       0       0                        00000000D    317
     144       0      -1       1       0                               0D    318
     128     281       0       0       0                        01010000D    319
     128       0       0       4       0                               0D    320
     126     285       0       0       0                        01010500D    321
     126       0       0       2       0                               0D    322
     110     287       0       0       0                        01010000D    323
     110       0       0       1       0                               0D    324
     126     288       0       0       0                        01010500D    325
     126       0       0       2       0                               0D    326
     110     290       0       0       0                        01010000D    327
     110       0       0       1       0                               0D    328
     126     291       0       0       0                        01010500D    329
     126       0       0       2       0                               0D    330
     110     293       0       0       0                        01010000D    331
     110       0       0       2       0                               0D    332
     126     295       0       0       0                        01010500D    333
     126       0       0       2       0                               0D    334
     110     297       0       0       0                        01010000D    335
     110       0       0       1       0                               0D    336
     126     298       0       0       0                        01010500D    337
     126       0       0       2       0                               0D    338
     110     300       0       0       0                        01010000D    339
     110       0       0       1       0                               0D    340
     126     301       0       0       0                        01010500D    341
     126       0       0       2       0                               0D    342
     110     303       0       0       0                        01010000D    343
     110       0       0       1       0                               0D    344
     126     304       0       0       0                        01010500D    345
     126       0       0       2       0                               0D    346
     110     306       0       0       0                        01010000D    347
     110       0       0       1       0                               0D    348
     126     307       0       0       0                        01010500D    349
     126       0       0       2       0                               0D    350
     110     309       0       0       0                        01010000D    351
     110       0       0       1       0                               0D    352
     102     310       0       0       0                        01010500D    353
     102       0       0       1       0                               0D    354
     102     311       0       0       0                        01010000D    355
     102       0       0       1       0                               0D    356
     142     312       0       0       0                        00010500D    357
     142       0       0       1       0                               0D    358
     144     313       0       0       0                        00000000D    359
     144       0      -1       1       0                               0D    360
     128     314       0       0       0                        01010000D    361
     128       0       0       4       0                               0D    362
     126     318       0       0       0                        01010500D    363
     126       0       0       2       0                               0D    364
     110     320       0       0       0                        01010000D    365
     110       0       0       2       0                               0D    366
     126     322       0       0       0                        01010500D    367
     126       0       0       2       0                               0D    368
     110     324       0       0       0                        01010000D    369
     110       0       0       2       0                               0D    370
     126     326       0       0       0                        01010500D    371
     126       0       0       2       0                               0D    372
     110     328       0       0       0                        01010000D    373
     110       0       0       2       0                               0D    374
     126     330       0       0       0                        01010500D    375
     126       0       0       2       0                               0D    376
     110     332       0       0       0                        01010000D    377
     110       0       0       2       0                               0D    378
     102     334       0       0       0                        01010500D    379
     102       0       0       1       0                               0D    380
     102     335       0       0       0                        01010000D    381
     102       0       0       1       0                               0D    382
     142     336       0       0       0                        00010500D    383
     142       0       0       1       0                               0D    384
     144     337       0       0       0                        00000000D    385
     144       0      -1       1       0                               0D    386
     128     338       0       0       0                        01010000D    387
     128       0       0       4       0                               0D    388
     126     342       0       0       0                        01010500D    389
     126       0       0       2       0                               0D    390
     110     344       0       0       0                        01010000D    391
     110       0       0       1       0                               0D    392
     126     345       0       0       0                        01010500D    393
     126       0       0       2       0                               0D    394
     110     347       0       0       0                        01010000D    395
     110       0       0       1       0                               0D    396
     126     348       0       0       0                        01010500D    397
     126       0       0       2       0                               0D    398
     110     350       0       0       0                        01010000D    399
     110       0       0       1       0                               0D    400
     126     351       0       0       0                        01010500D    401
     126       0       0       2       0                               0D    402
     110     353       0       0       0                        01010000D    403
     110       0       0       2       0                               0D    404
     102     355       0       0       0                        01010500D    405
     102       0       0       1       0                               0D    406
     102     356       0       0       0                        01010000D    407
     102       0       0       1       0                               0D    408
     142     357       0       0       0                        00010500D    409
     142       0       0       1       0                               0D    410
     144     358       0       0       0                        00000000D    411
     144       0      -1       1       0                               0D    412
     128     359       0       0       0                        01010000D    413
     128       0       0       4       0                               0D    414
     126     363       0       0       0                        01010500D    415
     126       0       0       2       0                               0D    416
     110     365       0       0       0                        01010000D    417
     110       0       0       2       0                               0D    418
     126     367       0       0       0                        01010500D    419
     126       0       0       2       0                               0D    420
     110     369       0       0       0                        01010000D    421
     110       0       0       2       0                               0D    422
     126     371       0       0       0                        01010500D    423
     126       0       0       2       0                               0D    424
     110     373       0       0       0                        01010000D    425
     110       0       0       2       0                               0D    426
     126     375       0       0       0                        01010500D    427
     126       0       0       2       0                               0D    428
     110     377       0       0       0                        01010000D    429
     110       0       0       2       0                               0D    430
     102     379       0       0       0                        01010500D    431
     102       0       0       1       0                               0D    432
     102     380       0       0       0                        01010000D    433
     102       0       0       1       0                               0D    434
     142     381       0       0       0                        00010500D    435
     142       0       0       1       0                               0D    436
     144     382       0       0       0                        00000000D    437
     144       0      -1       1       0                               0D    438
     128     383       0       0       0                        01010000D    439
     128       0       0       4       0                               0D    440
     126     387       0       0       0                        01010500D    441
     126       0       0       2       0                               0D    442
     110     389       0       0       0                        01010000D    443
     110       0       0       2       0                               0D    444
     126     391       0       0       0                        01010500D    445
     126       0       0       2       0                               0D    446
     110     393       0       0       0                        01010000D    447
     110       0       0       2       0                               0D    448
     126     395       0       0       0                        01010500D    449
     126       0       0       2       0                               0D    450
     110     397       0       0       0                        01010000D    451
     110       0       0       2       0                               0D    452
     126     399       0       0       0                        01010500D    453
     126       0       0       2       0                               0D    454
     110     401       0       0       0                        01010000D    455
     110       0       0       2       0                               0D    456
     102     403       0       0       0                        01010500D    457
     102       0       0       1       0                               0D    458
     102     404       0       0       0                        01010000D    459
     102       0       0       1       0                               0D    460
     142     405       0       0       0                        00010500D    461
     142       0       0       1       0                               0D    462
     144     406       0       0       0                        00000000D    463
     144       0      -1       1       0                               0D    464
     128     407       0       0       0                        01010000D    465
     128       0       0       4       0                               0D    466
     126     411       0       0       0                        01010500D    467
     126       0       0       2       0                               0D    468
     110     413       0       0       0                        01010000D    469
     110       0       0       2       0                               0D    470
     126     415       0       0       0                        01010500D    471
     126       0       0       2       0                               0D    472
     110     417       0       0       0                        01010000D    473
     110       0       0       2       0                               0D    474
     126     419       0       0       0                        01010500D    475
     126       0       0       2       0                               0D    476
     110     421       0       0       0                        01010000D    477
     110       0       0       2       0                               0D    478
     126     423       0       0       0                        01010500D    479
     126       0       0       2       0                               0D    480
     110     425       0       0       0                        01010000D    481
     110       0       0       2       0                               0D    482
     126     427       0       0       0                        01010500D    483
     126       0       0       2       0                               0D    484
     110     429       0       0       0                        01010000D    485
     110       0       0       2       0                               0D    486
     126     431       0       0       0                        01010500D    487
     126       0       0       2       0                               0D    488
     110     433       0       0       0                        01010000D    489
     110       0       0       2       0                               0D    490
     102     435       0       0       0                        01010500D    491
     102       0       0       1       0                               0D    492
     102     436       0       0       0                        01010000D    493
     102       0       0       1       0                               0D    494
     142     437       0       0       0                        00010500D    495
     142       0       0       1       0                               0D    496
     144     438       0       0       0                        00000000D    497
     144       0      -1       1       0                               0D    498
     128     439       0       0       0                        01010000D    499
     128       0       0       4       0                               0D    500
     126     443       0       0       0                        01010500D    501
     126       0       0       2       0                               0D    502
     110     445       0       0       0                        01010000D    503
     110       0       0       2       0                               0D    504
     126     447       0       0       0                        01010500D    505
     126       0       0       2       0                               0D    506
     110     449       0       0       0                        01010000D    507
     110       0       0       1       0                               0D    508
     126     450       0       0       0                        01010500D    509
     126       0       0       2       0                               0D    510
     110     452       0       0       0                        01010000D    511
     110       0       0       1       0                               0D    512
     126     453       0       0       0                        01010500D    513
     126       0       0       2       0                               0D    514
     110     455       0       0       0                        01010000D    515
     110       0       0       1       0                               0D    516
     126     456       0       0       0                        01010500D    517
     126       0       0       2       0                               0D    518
     110     458       0       0       0                        01010000D    519
     110       0       0       1       0                               0D    520
     126     459       0       0       0                        01010500D    521
     126       0       0       2       0                               0D    522
     110     461       0       0       0                        01010000D    523
     110       0       0       2       0                               0D    524
     102     463       0       0       0                        01010500D    525
     102       0       0       1       0                               0D    526
     102     464       0       0       0                        01010000D    527
     102       0       0       1       0                               0D    528
     142     465       0       0       0                        00010500D    529
     142       0       0       1       0                               0D    530
     144     466       0       0       0                        00000000D    531
     144       0      -1       1       0                               0D    532
     128     467       0       0       0                        01010000D    533
     128       0       0       4       0                               0D    534
     126     471       0       0       0                        01010500D    535
     126       0       0       2       0                               0D    536
     110     473       0       0       0                        01010000D    537
     110       0       0       1       0                               0D    538
     126     474       0       0       0                        01010500D    539
     126       0       0       2       0                               0D    540
     110     476       0       0       0                        01010000D    541
     110       0       0       1       0                               0D    542
     126     477       0       0       0                        01010500D    543
     126       0       0       2       0                               0D    544
     110     479       0       0       0                        01010000D    545
     110       0       0       2       0                               0D    546
     126     481       0       0       0                        01010500D    547
     126       0       0       2       0                               0D    548
     110     483       0       0       0                        01010000D    549
     110       0       0       2       0                               0D    550
     126     485       0       0       0                        01010500D    551
     126       0       0       2       0                               0D    552
     110     487       0       0       0                        01010000D    553
     110       0       0       2       0                               0D    554
     126     489       0       0       0                        01010500D    555
     126       0       0       2       0                               0D    556
     110     491       0       0       0                        01010000D    557
     110       0       0       1       0                               0D    558
     102     492       0       0       0                        01010500D    559
     102       0       0       1       0                               0D    560
     102     493       0       0       0                        01010000D    561
     102       0       0       1       0                               0D    562
     142     494       0       0       0                        00010500D    563
     142       0       0       1       0                               0D    564
     144     495       0       0       0                        00000000D    565
     144       0      -1       1       0                               0D    566
     128     496       0       0       0                        01010000D    567
     128       0       0       4       0                               0D    568
     126     500       0       0       0                        01010500D    569
     126       0       0       2       0                               0D    570
     110     502       0       0       0                        01010000D    571
     110       0       0       1       0                               0D    572
     126     503       0       0       0                        01010500D    573
     126       0       0       2       0                               0D    574
     110     505       0       0       0                        01010000D    575
     110       0       0       2       0                               0D    576
     126     507       0       0       0                        01010500D    577
     126       0       0       2       0                               0D    578
     110     509       0       0       0                        01010000D    579
     110       0       0       1       0                               0D    580
     126     510       0       0       0                        01010500D    581
     126       0       0       2       0                               0D    582
     110     512       0       0       0                        01010000D    583
     110       0       0       1       0                               0D    584
     102     513       0       0       0                        01010500D    585
     102       0       0       1       0                               0D    586
     102     514       0       0       0                        01010000D    587
     102       0       0       1       0                               0D    588
     142     515       0       0       0                        00010500D    589
     142       0       0       1       0                               0D    590
     144     516       0       0       0                        00000000D    591
     144       0      -1       1       0                               0D    592
     128     517       0       0       0                        01010000D    593
     128       0       0       4       0                               0D    594
     126     521       0       0       0                        01010500D    595
     126       0       0       2       0                               0D    596
     110     523       0       0       0                        01010000D    597
     110       0       0       1       0                               0D    598
     126     524       0       0       0                        01010500D    599
     126       0       0       2       0                               0D    600
     110     526       0       0       0                        01010000D    601
     110       0       0       2       0                               0D    602
     126     528       0       0       0                        01010500D    603
     126       0       0       2       0                               0D    604
     110     530       0       0       0                        01010000D    605
     110       0       0       1       0                               0D    606
     126     531       0       0       0                        01010500D    607
     126       0       0       2       0                               0D    608
     110     533       0       0       0                        01010000D    609
     110       0       0       1       0                               0D    610
     102     534       0       0       0                        01010500D    611
     102       0       0       1       0                               0D    612
     102     535       0       0       0                        01010000D    613
     102       0       0       1       0                               0D    614
     142     536       0       0       0                        00010500D    615
     142       0       0       1       0                               0D    616
     144     537       0       0       0                        00000000D    617
     144       0      -1       1       0                               0D    618
314,79.2156862745098,81.9607843137255,93.3333333333333,;               1P      1
128,1,1,1,1,0,0,1,0,0,0.,0.,1.,1.,0.,0.,1.,1.,1.,1.,1.,1.,             3P      2
-68.141246028,33.636147389,24.,-38.114936027,33.636147389,24.,         3P      3
-68.141246028,85.643241876,24.,-38.114936027,85.643241876,24.,         3P      4
0.,1.,0.,1.;                                                           3P      5
126,1,1,1,0,1,0,0.,0.,1.,1.,1.,1.,1.,0.801754326,0.,1.,                5P      6
0.994035785,0.,0.,1.,0.,0.,1.;                                         5P      7
110,-38.114936027,75.333060398,24.,-38.114936027,85.333060398,         7P      8
24.;                                                                   7P      9
126,1,1,1,0,1,0,0.,0.,1.,1.,1.,1.,1.,0.994035785,0.,                   9P     10
0.005964215,0.,0.,0.,1.,0.,0.,1.;                                      9P     11
110,-38.114936027,85.333060398,24.,-67.962162669,33.636147389,        11P     12
24.;                                                                  11P     13
126,1,1,1,0,1,0,0.,0.,1.,1.,1.,1.,0.005964215,0.,0.,                  13P     14
0.198245674,0.,0.,0.,1.,0.,0.,1.;                                     13P     15
110,-67.962162669,33.636147389,24.,-62.188659977,33.636147389,        15P     16
24.;                                                                  15P     17
126,1,1,1,0,1,0,0.,0.,1.,1.,1.,1.,0.198245674,0.,0.,1.,               17P     18
0.801754326,0.,0.,1.,0.,0.,1.;                                        17P     19
110,-62.188659977,33.636147389,24.,-38.114936027,75.333060398,        19P     20
24.;                                                                  19P     21
102,4,5,9,13,17;                                                      21P     22
102,4,7,11,15,19;                                                     23P     23
142,1,3,21,23,1;                                                      25P     24
144,3,1,0,25;                                                         27P     25
128,1,1,1,1,0,0,1,0,0,0.,0.,1.,1.,0.,0.,1.,1.,1.,1.,1.,1.,            29P     26
-65.817988545,33.636147389,22.,-38.114936027,33.636147389,22.,        29P     27
-65.817988545,81.619241876,22.,-38.114936027,81.619241876,22.,        29P     28
0.,1.,0.,1.;                                                          29P     29
126,1,1,1,0,1,0,0.,0.,1.,1.,1.,1.,0.005964215,0.,0.,                  31P     30
0.131008255,0.,0.,0.,1.,0.,0.,1.;                                     31P     31
110,-65.652761592,33.636147389,22.,-62.188659977,33.636147389,        33P     32
22.;                                                                  33P     33
126,1,1,1,0,1,0,0.,0.,1.,1.,1.,1.,0.131008255,0.,0.,1.,               35P     34
0.868991745,0.,0.,1.,0.,0.,1.;                                        35P     35
110,-62.188659977,33.636147389,22.,-38.114936027,75.333060398,        37P     36
22.;                                                                  37P     37
126,1,1,1,0,1,0,0.,0.,1.,1.,1.,1.,1.,0.868991745,0.,1.,               39P     38
0.994035785,0.,0.,1.,0.,0.,1.;                                        39P     39
110,-38.114936027,75.333060398,22.,-38.114936027,81.333060398,        41P     40
22.;                                                                  41P     41
126,1,1,1,0,1,0,0.,0.,1.,1.,1.,1.,1.,0.994035785,0.,                  43P     42
0.005964215,0.,0.,0.,1.,0.,0.,1.;                                     43P     43
110,-38.114936027,81.333060398,22.,-65.652761592,33.636147389,        45P     44
22.;                                                                  45P     45
102,4,31,35,39,43;                                                    47P     46
102,4,33,37,41,45;                                                    49P     47
142,1,29,47,49,1;                                                     51P     48
144,29,1,0,51;                                                        53P     49
128,1,1,1,1,0,0,1,0,0,0.,0.,1.,1.,0.,0.,1.,1.,1.,1.,1.,1.,            55P     50
-67.962162669,33.636147389,0.,-67.962162669,33.636147389,24.,         55P     51
67.962162669,33.636147389,0.,67.962162669,33.636147389,24.,0.,        55P     52
1.,0.,1.;                                                             55P     53
126,1,1,1,0,1,0,0.,0.,1.,1.,1.,1.,0.916666667,0.983009656,0.,         57P     54
0.916666667,0.957524139,0.,0.,1.,0.,0.,1.;                            57P     55
110,65.652761592,33.636147389,22.,62.188659977,33.636147389,          59P     56
22.;                                                                  59P     57
126,1,1,1,0,1,0,0.,0.,1.,1.,1.,1.,0.916666667,0.957524139,0.,         61P     58
1.,0.957524139,0.,0.,1.,0.,0.,1.;                                     61P     59
110,62.188659977,33.636147389,22.,62.188659977,33.636147389,          63P     60
24.;                                                                  63P     61
126,1,1,1,0,1,0,0.,0.,1.,1.,1.,1.,1.,0.957524139,0.,1.,1.,0.,         65P     62
0.,1.,0.,0.,1.;                                                       65P     63
110,62.188659977,33.636147389,24.,67.962162669,33.636147389,          67P     64
24.;                                                                  67P     65
126,1,1,1,0,1,0,0.,0.,1.,1.,1.,1.,1.,1.,0.,0.,1.,0.,0.,1.,0.,         69P     66
0.,1.;                                                                69P     67
110,67.962162669,33.636147389,24.,67.962162669,33.636147389,0.;       71P     68
126,1,1,1,0,1,0,0.,0.,1.,1.,1.,1.,0.,1.,0.,0.,0.,0.,0.,1.,0.,         73P     69
0.,1.;                                                                73P     70
110,67.962162669,33.636147389,0.,-67.962162669,33.636147389,0.;       75P     71
126,1,1,1,0,1,0,0.,0.,1.,1.,1.,1.,0.,0.,0.,1.,0.,0.,0.,1.,0.,         77P     72
0.,1.;                                                                77P     73
110,-67.962162669,33.636147389,0.,-67.962162669,33.636147389,         79P     74
24.;                                                                  79P     75
126,1,1,1,0,1,0,0.,0.,1.,1.,1.,1.,1.,0.,0.,1.,0.042475861,0.,         81P     76
0.,1.,0.,0.,1.;                                                       81P     77
110,-67.962162669,33.636147389,24.,-62.188659977,33.636147389,        83P     78
24.;                                                                  83P     79
126,1,1,1,0,1,0,0.,0.,1.,1.,1.,1.,1.,0.042475861,0.,                  85P     80
0.916666667,0.042475861,0.,0.,1.,0.,0.,1.;                            85P     81
110,-62.188659977,33.636147389,24.,-62.188659977,33.636147389,        87P     82
22.;                                                                  87P     83
126,1,1,1,0,1,0,0.,0.,1.,1.,1.,1.,0.916666667,0.042475861,0.,         89P     84
0.916666667,0.016990344,0.,0.,1.,0.,0.,1.;                            89P     85
110,-62.188659977,33.636147389,22.,-65.652761592,33.636147389,        91P     86
22.;                                                                  91P     87
126,1,1,1,0,1,0,0.,0.,1.,1.,1.,1.,0.916666667,0.016990344,0.,         93P     88
0.208333333,0.016990344,0.,0.,1.,0.,0.,1.;                            93P     89
110,-65.652761592,33.636147389,22.,-65.652761592,33.636147389,        95P     90
5.;                                                                   95P     91
126,1,1,1,0,1,0,0.,0.,1.,1.,1.,1.,0.208333333,0.016990344,0.,         97P     92
0.208333333,0.983009656,0.,0.,1.,0.,0.,1.;                            97P     93
110,-65.652761592,33.636147389,5.,65.652761592,33.636147389,5.;       99P     94
126,1,1,1,0,1,0,0.,0.,1.,1.,1.,1.,0.208333333,0.983009656,0.,        101P     95
0.916666667,0.983009656,0.,0.,1.,0.,0.,1.;                           101P     96
110,65.652761592,33.636147389,5.,65.652761592,33.636147389,22.;      103P     97
102,12,57,61,65,69,73,77,81,85,89,93,97,101;                         105P     98
102,12,59,63,67,71,75,79,83,87,91,95,99,103;                         107P     99
142,1,55,105,107,1;                                                  109P    100
144,55,1,0,109;                                                      111P    101
128,1,1,1,1,0,0,1,0,0,0.,0.,1.,1.,0.,0.,1.,1.,1.,1.,1.,1.,           113P    102
-38.114936027,85.333060398,3.,-38.114936027,85.333060398,0.,         113P    103
38.114936027,85.333060398,3.,38.114936027,85.333060398,0.,0.,        113P    104
1.,0.,1.;                                                            113P    105
126,1,1,1,0,1,0,0.,0.,1.,1.,1.,1.,1.,0.,0.,1.,1.,0.,0.,1.,0.,        115P    106
0.,1.;                                                               115P    107
110,-38.114936027,85.333060398,0.,38.114936027,85.333060398,0.;      117P    108
126,1,1,1,0,1,0,0.,0.,1.,1.,1.,1.,1.,1.,0.,0.,1.,0.,0.,1.,0.,        119P    109
0.,1.;                                                               119P    110
110,38.114936027,85.333060398,0.,38.114936027,85.333060398,3.;       121P    111
126,1,1,1,0,1,0,0.,0.,1.,1.,1.,1.,0.,1.,0.,0.,0.,0.,0.,1.,0.,        123P    112
0.,1.;                                                               123P    113
110,38.114936027,85.333060398,3.,-38.114936027,85.333060398,3.;      125P    114
126,1,1,1,0,1,0,0.,0.,1.,1.,1.,1.,0.,0.,0.,1.,0.,0.,0.,1.,0.,        127P    115
0.,1.;                                                               127P    116
110,-38.114936027,85.333060398,3.,-38.114936027,85.333060398,        129P    117
0.;                                                                  129P    118
102,4,115,119,123,127;                                               131P    119
102,4,117,121,125,129;                                               133P    120
142,1,113,131,133,1;                                                 135P    121
144,113,1,0,135;                                                     137P    122
128,1,1,1,1,0,0,1,0,0,0.,0.,1.,1.,0.,0.,1.,1.,1.,1.,1.,1.,           139P    123
-67.962162669,33.636147389,0.,-38.114936027,85.333060398,0.,         139P    124
-67.962162669,33.636147389,24.,-38.114936027,85.333060398,24.,       139P    125
0.,1.,0.,1.;                                                         139P    126
126,1,1,1,0,1,0,0.,0.,1.,1.,1.,1.,1.,0.,0.,1.,0.125,0.,0.,1.,        141P    127
0.,0.,1.;                                                            141P    128
110,-38.114936027,85.333060398,0.,-38.114936027,85.333060398,        143P    129
3.;                                                                  143P    130
126,1,1,1,0,1,0,0.,0.,1.,1.,1.,1.,1.,0.125,0.,1.,1.,0.,0.,1.,        145P    131
0.,0.,1.;                                                            145P    132
110,-38.114936027,85.333060398,3.,-38.114936027,85.333060398,        147P    133
24.;                                                                 147P    134
126,1,1,1,0,1,0,0.,0.,1.,1.,1.,1.,1.,1.,0.,0.,1.,0.,0.,1.,0.,        149P    135
0.,1.;                                                               149P    136
110,-38.114936027,85.333060398,24.,-67.962162669,33.636147389,       151P    137
24.;                                                                 151P    138
126,1,1,1,0,1,0,0.,0.,1.,1.,1.,1.,0.,1.,0.,0.,0.,0.,0.,1.,0.,        153P    139
0.,1.;                                                               153P    140
110,-67.962162669,33.636147389,24.,-67.962162669,33.636147389,       155P    141
0.;                                                                  155P    142
126,1,1,1,0,1,0,0.,0.,1.,1.,1.,1.,0.,0.,0.,1.,0.,0.,0.,1.,0.,        157P    143
0.,1.;                                                               157P    144
110,-67.962162669,33.636147389,0.,-38.114936027,85.333060398,        159P    145
0.;                                                                  159P    146
102,5,141,145,149,153,157;                                           161P    147
102,5,143,147,151,155,159;                                           163P    148
142,1,139,161,163,1;                                                 165P    149
144,139,1,0,165;                                                     167P    150
128,1,1,1,1,0,0,1,0,0,0.,0.,1.,1.,0.,0.,1.,1.,1.,1.,1.,1.,           169P    151
38.114936027,85.333060398,0.,67.962162669,33.636147389,0.,           169P    152
38.114936027,85.333060398,24.,67.962162669,33.636147389,24.,0.,      169P    153
1.,0.,1.;                                                            169P    154
126,1,1,1,0,1,0,0.,0.,1.,1.,1.,1.,1.,0.,0.,1.,1.,0.,0.,1.,0.,        171P    155
0.,1.;                                                               171P    156
110,67.962162669,33.636147389,0.,67.962162669,33.636147389,24.;      173P    157
126,1,1,1,0,1,0,0.,0.,1.,1.,1.,1.,1.,1.,0.,0.,1.,0.,0.,1.,0.,        175P    158
0.,1.;                                                               175P    159
110,67.962162669,33.636147389,24.,38.114936027,85.333060398,         177P    160
24.;                                                                 177P    161
126,1,1,1,0,1,0,0.,0.,1.,1.,1.,1.,0.,1.,0.,0.,0.125,0.,0.,1.,        179P    162
0.,0.,1.;                                                            179P    163
110,38.114936027,85.333060398,24.,38.114936027,85.333060398,3.;      181P    164
126,1,1,1,0,1,0,0.,0.,1.,1.,1.,1.,0.,0.125,0.,0.,0.,0.,0.,1.,        183P    165
0.,0.,1.;                                                            183P    166
110,38.114936027,85.333060398,3.,38.114936027,85.333060398,0.;       185P    167
126,1,1,1,0,1,0,0.,0.,1.,1.,1.,1.,0.,0.,0.,1.,0.,0.,0.,1.,0.,        187P    168
0.,1.;                                                               187P    169
110,38.114936027,85.333060398,0.,67.962162669,33.636147389,0.;       189P    170
102,5,171,175,179,183,187;                                           191P    171
102,5,173,177,181,185,189;                                           193P    172
142,1,169,191,193,1;                                                 195P    173
144,169,1,0,195;                                                     197P    174
128,1,1,1,1,0,0,1,0,0,0.,0.,1.,1.,0.,0.,1.,1.,1.,1.,1.,1.,           199P    175
38.114936027,33.636147389,24.,68.141246028,33.636147389,24.,         199P    176
38.114936027,85.643241876,24.,68.141246028,85.643241876,24.,0.,      199P    177
1.,0.,1.;                                                            199P    178
126,1,1,1,0,1,0,0.,0.,1.,1.,1.,1.,0.,0.994035785,0.,0.,              201P    179
0.801754326,0.,0.,1.,0.,0.,1.;                                       201P    180
110,38.114936027,85.333060398,24.,38.114936027,75.333060398,         203P    181
24.;                                                                 203P    182
126,1,1,1,0,1,0,0.,0.,1.,1.,1.,1.,0.,0.801754326,0.,                 205P    183
0.801754326,0.,0.,0.,1.,0.,0.,1.;                                    205P    184
110,38.114936027,75.333060398,24.,62.188659977,33.636147389,         207P    185
24.;                                                                 207P    186
126,1,1,1,0,1,0,0.,0.,1.,1.,1.,1.,0.801754326,0.,0.,                 209P    187
0.994035785,0.,0.,0.,1.,0.,0.,1.;                                    209P    188
110,62.188659977,33.636147389,24.,67.962162669,33.636147389,         211P    189
24.;                                                                 211P    190
126,1,1,1,0,1,0,0.,0.,1.,1.,1.,1.,0.994035785,0.,0.,0.,              213P    191
0.994035785,0.,0.,1.,0.,0.,1.;                                       213P    192
110,67.962162669,33.636147389,24.,38.114936027,85.333060398,         215P    193
24.;                                                                 215P    194
102,4,201,205,209,213;                                               217P    195
102,4,203,207,211,215;                                               219P    196
142,1,199,217,219,1;                                                 221P    197
144,199,1,0,221;                                                     223P    198
128,1,1,1,1,0,0,1,0,0,0.,0.,1.,1.,0.,0.,1.,1.,1.,1.,1.,1.,           225P    199
-68.777708621,33.636147389,0.,68.777708621,33.636147389,0.,          225P    200
-68.777708621,85.333060398,0.,68.777708621,85.333060398,0.,0.,       225P    201
1.,0.,1.;                                                            225P    202
126,1,1,1,0,1,0,0.,0.,1.,1.,1.,1.,0.222912141,1.,0.,                 227P    203
0.005928854,0.,0.,0.,1.,0.,0.,1.;                                    227P    204
110,-38.114936027,85.333060398,0.,-67.962162669,33.636147389,        229P    205
0.;                                                                  229P    206
126,1,1,1,0,1,0,0.,0.,1.,1.,1.,1.,0.005928854,0.,0.,                 231P    207
0.994071146,0.,0.,0.,1.,0.,0.,1.;                                    231P    208
110,-67.962162669,33.636147389,0.,67.962162669,33.636147389,0.;      233P    209
126,1,1,1,0,1,0,0.,0.,1.,1.,1.,1.,0.994071146,0.,0.,                 235P    210
0.777087859,1.,0.,0.,1.,0.,0.,1.;                                    235P    211
110,67.962162669,33.636147389,0.,38.114936027,85.333060398,0.;       237P    212
126,1,1,1,0,1,0,0.,0.,1.,1.,1.,1.,0.777087859,1.,0.,                 239P    213
0.222912141,1.,0.,0.,1.,0.,0.,1.;                                    239P    214
110,38.114936027,85.333060398,0.,-38.114936027,85.333060398,0.;      241P    215
102,4,227,231,235,239;                                               243P    216
102,4,229,233,237,241;                                               245P    217
142,1,225,243,245,1;                                                 247P    218
144,225,1,0,247;                                                     249P    219
128,1,1,1,1,0,0,1,0,0,0.,0.,1.,1.,0.,0.,1.,1.,1.,1.,1.,1.,           251P    220
-36.960235489,83.333060398,3.,-36.960235489,83.333060398,2.,         251P    221
36.960235489,83.333060398,3.,36.960235489,83.333060398,2.,0.,        251P    222
1.,0.,1.;                                                            251P    223
126,1,1,1,0,1,0,0.,0.,1.,1.,1.,1.,0.,1.,0.,0.,0.,0.,0.,1.,0.,        253P    224
0.,1.;                                                               253P    225
110,36.960235489,83.333060398,3.,-36.960235489,83.333060398,3.;      255P    226
126,1,1,1,0,1,0,0.,0.,1.,1.,1.,1.,0.,0.,0.,1.,0.,0.,0.,1.,0.,        257P    227
0.,1.;                                                               257P    228
110,-36.960235489,83.333060398,3.,-36.960235489,83.333060398,        259P    229
2.;                                                                  259P    230
126,1,1,1,0,1,0,0.,0.,1.,1.,1.,1.,1.,0.,0.,1.,1.,0.,0.,1.,0.,        261P    231
0.,1.;                                                               261P    232
110,-36.960235489,83.333060398,2.,36.960235489,83.333060398,2.;      263P    233
126,1,1,1,0,1,0,0.,0.,1.,1.,1.,1.,1.,1.,0.,0.,1.,0.,0.,1.,0.,        265P    234
0.,1.;                                                               265P    235
110,36.960235489,83.333060398,2.,36.960235489,83.333060398,3.;       267P    236
102,4,253,257,261,265;                                               269P    237
102,4,255,259,263,267;                                               271P    238
142,1,251,269,271,1;                                                 273P    239
144,251,1,0,273;                                                     275P    240
128,1,1,1,1,0,0,1,0,0,0.,0.,1.,1.,0.,0.,1.,1.,1.,1.,1.,1.,           277P    241
-65.652761592,33.636147389,2.,-36.960235489,83.333060398,2.,         277P    242
-65.652761592,33.636147389,22.,-36.960235489,83.333060398,22.,       277P    243
0.,1.,0.,1.;                                                         277P    244
126,1,1,1,0,1,0,0.,0.,1.,1.,1.,1.,0.,0.15,0.,0.040243948,0.15,       279P    245
0.,0.,1.,0.,0.,1.;                                                   279P    246
110,-65.652761592,33.636147389,5.,-64.498061053,35.636147389,        281P    247
5.;                                                                  281P    248
126,1,1,1,0,1,0,0.,0.,1.,1.,1.,1.,0.040243948,0.15,0.,               283P    249
0.040243948,0.,0.,0.,1.,0.,0.,1.;                                    283P    250
110,-64.498061053,35.636147389,5.,-64.498061053,35.636147389,        285P    251
2.;                                                                  285P    252
126,1,1,1,0,1,0,0.,0.,1.,1.,1.,1.,0.040243948,0.,0.,1.,0.,0.,        287P    253
0.,1.,0.,0.,1.;                                                      287P    254
110,-64.498061053,35.636147389,2.,-36.960235489,83.333060398,        289P    255
2.;                                                                  289P    256
126,1,1,1,0,1,0,0.,0.,1.,1.,1.,1.,1.,0.,0.,1.,0.05,0.,0.,1.,0.,      291P    257
0.,1.;                                                               291P    258
110,-36.960235489,83.333060398,2.,-36.960235489,83.333060398,        293P    259
3.;                                                                  293P    260
126,1,1,1,0,1,0,0.,0.,1.,1.,1.,1.,1.,0.05,0.,0.959756052,0.05,       295P    261
0.,0.,1.,0.,0.,1.;                                                   295P    262
110,-36.960235489,83.333060398,3.,-38.114936027,81.333060398,        297P    263
3.;                                                                  297P    264
126,1,1,1,0,1,0,0.,0.,1.,1.,1.,1.,0.959756052,0.05,0.,               299P    265
0.959756052,1.,0.,0.,1.,0.,0.,1.;                                    299P    266
110,-38.114936027,81.333060398,3.,-38.114936027,81.333060398,        301P    267
22.;                                                                 301P    268
126,1,1,1,0,1,0,0.,0.,1.,1.,1.,1.,0.959756052,1.,0.,0.,1.,0.,        303P    269
0.,1.,0.,0.,1.;                                                      303P    270
110,-38.114936027,81.333060398,22.,-65.652761592,33.636147389,       305P    271
22.;                                                                 305P    272
126,1,1,1,0,1,0,0.,0.,1.,1.,1.,1.,0.,1.,0.,0.,0.15,0.,0.,1.,0.,      307P    273
0.,1.;                                                               307P    274
110,-65.652761592,33.636147389,22.,-65.652761592,33.636147389,       309P    275
5.;                                                                  309P    276
102,8,279,283,287,291,295,299,303,307;                               311P    277
102,8,281,285,289,293,297,301,305,309;                               313P    278
142,1,277,311,313,1;                                                 315P    279
144,277,1,0,315;                                                     317P    280
128,1,1,1,1,0,0,1,0,0,0.,0.,1.,1.,0.,0.,1.,1.,1.,1.,1.,1.,           319P    281
36.960235489,83.333060398,2.,65.652761592,33.636147389,2.,           319P    282
36.960235489,83.333060398,22.,65.652761592,33.636147389,22.,0.,      319P    283
1.,0.,1.;                                                            319P    284
126,1,1,1,0,1,0,0.,0.,1.,1.,1.,1.,0.959756052,0.15,0.,1.,0.15,       321P    285
0.,0.,1.,0.,0.,1.;                                                   321P    286
110,64.498061053,35.636147389,5.,65.652761592,33.636147389,5.;       323P    287
126,1,1,1,0,1,0,0.,0.,1.,1.,1.,1.,1.,0.15,0.,1.,1.,0.,0.,1.,0.,      325P    288
0.,1.;                                                               325P    289
110,65.652761592,33.636147389,5.,65.652761592,33.636147389,22.;      327P    290
126,1,1,1,0,1,0,0.,0.,1.,1.,1.,1.,1.,1.,0.,0.040243948,1.,0.,        329P    291
0.,1.,0.,0.,1.;                                                      329P    292
110,65.652761592,33.636147389,22.,38.114936027,81.333060398,         331P    293
22.;                                                                 331P    294
126,1,1,1,0,1,0,0.,0.,1.,1.,1.,1.,0.040243948,1.,0.,                 333P    295
0.040243948,0.05,0.,0.,1.,0.,0.,1.;                                  333P    296
110,38.114936027,81.333060398,22.,38.114936027,81.333060398,3.;      335P    297
126,1,1,1,0,1,0,0.,0.,1.,1.,1.,1.,0.040243948,0.05,0.,0.,0.05,       337P    298
0.,0.,1.,0.,0.,1.;                                                   337P    299
110,38.114936027,81.333060398,3.,36.960235489,83.333060398,3.;       339P    300
126,1,1,1,0,1,0,0.,0.,1.,1.,1.,1.,0.,0.05,0.,0.,0.,0.,0.,1.,0.,      341P    301
0.,1.;                                                               341P    302
110,36.960235489,83.333060398,3.,36.960235489,83.333060398,2.;       343P    303
126,1,1,1,0,1,0,0.,0.,1.,1.,1.,1.,0.,0.,0.,0.959756052,0.,0.,        345P    304
0.,1.,0.,0.,1.;                                                      345P    305
110,36.960235489,83.333060398,2.,64.498061053,35.636147389,2.;       347P    306
126,1,1,1,0,1,0,0.,0.,1.,1.,1.,1.,0.959756052,0.,0.,                 349P    307
0.959756052,0.15,0.,0.,1.,0.,0.,1.;                                  349P    308
110,64.498061053,35.636147389,2.,64.498061053,35.636147389,5.;       351P    309
102,8,321,325,329,333,337,341,345,349;                               353P    310
102,8,323,327,331,335,339,343,347,351;                               355P    311
142,1,319,353,355,1;                                                 357P    312
144,319,1,0,357;                                                     359P    313
128,1,1,1,1,0,0,1,0,0,0.,0.,1.,1.,0.,0.,1.,1.,1.,1.,1.,1.,           361P    314
38.114936027,33.636147389,22.,65.817988545,33.636147389,22.,         361P    315
38.114936027,81.619241876,22.,65.817988545,81.619241876,22.,0.,      361P    316
1.,0.,1.;                                                            361P    317
126,1,1,1,0,1,0,0.,0.,1.,1.,1.,1.,0.868991745,0.,0.,                 363P    318
0.994035785,0.,0.,0.,1.,0.,0.,1.;                                    363P    319
110,62.188659977,33.636147389,22.,65.652761592,33.636147389,         365P    320
22.;                                                                 365P    321
126,1,1,1,0,1,0,0.,0.,1.,1.,1.,1.,0.994035785,0.,0.,0.,              367P    322
0.994035785,0.,0.,1.,0.,0.,1.;                                       367P    323
110,65.652761592,33.636147389,22.,38.114936027,81.333060398,         369P    324
22.;                                                                 369P    325
126,1,1,1,0,1,0,0.,0.,1.,1.,1.,1.,0.,0.994035785,0.,0.,              371P    326
0.868991745,0.,0.,1.,0.,0.,1.;                                       371P    327
110,38.114936027,81.333060398,22.,38.114936027,75.333060398,         373P    328
22.;                                                                 373P    329
126,1,1,1,0,1,0,0.,0.,1.,1.,1.,1.,0.,0.868991745,0.,                 375P    330
0.868991745,0.,0.,0.,1.,0.,0.,1.;                                    375P    331
110,38.114936027,75.333060398,22.,62.188659977,33.636147389,         377P    332
22.;                                                                 377P    333
102,4,363,367,371,375;                                               379P    334
102,4,365,369,373,377;                                               381P    335
142,1,361,379,381,1;                                                 383P    336
144,361,1,0,383;                                                     385P    337
128,1,1,1,1,0,0,1,0,0,0.,0.,1.,1.,0.,0.,1.,1.,1.,1.,1.,1.,           387P    338
-65.272037786,35.636147389,2.,65.272037786,35.636147389,2.,          387P    339
-65.272037786,83.333060398,2.,65.272037786,83.333060398,2.,0.,       387P    340
1.,0.,1.;                                                            387P    341
126,1,1,1,0,1,0,0.,0.,1.,1.,1.,1.,0.005928854,0.,0.,                 389P    342
0.994071146,0.,0.,0.,1.,0.,0.,1.;                                    389P    343
110,-64.498061053,35.636147389,2.,64.498061053,35.636147389,2.;      391P    344
126,1,1,1,0,1,0,0.,0.,1.,1.,1.,1.,0.994071146,0.,0.,                 393P    345
0.783124572,1.,0.,0.,1.,0.,0.,1.;                                    393P    346
110,64.498061053,35.636147389,2.,36.960235489,83.333060398,2.;       395P    347
126,1,1,1,0,1,0,0.,0.,1.,1.,1.,1.,0.783124572,1.,0.,                 397P    348
0.216875428,1.,0.,0.,1.,0.,0.,1.;                                    397P    349
110,36.960235489,83.333060398,2.,-36.960235489,83.333060398,2.;      399P    350
126,1,1,1,0,1,0,0.,0.,1.,1.,1.,1.,0.216875428,1.,0.,                 401P    351
0.005928854,0.,0.,0.,1.,0.,0.,1.;                                    401P    352
110,-36.960235489,83.333060398,2.,-64.498061053,35.636147389,        403P    353
2.;                                                                  403P    354
102,4,389,393,397,401;                                               405P    355
102,4,391,395,399,403;                                               407P    356
142,1,387,405,407,1;                                                 409P    357
144,387,1,0,409;                                                     411P    358
128,1,1,1,1,0,0,1,0,0,0.,0.,1.,1.,0.,0.,1.,1.,1.,1.,1.,1.,           413P    359
-38.114936027,75.333060398,22.,-62.188659977,33.636147389,22.,       413P    360
-38.114936027,75.333060398,24.,-62.188659977,33.636147389,24.,       413P    361
0.,1.,0.,1.;                                                         413P    362
126,1,1,1,0,1,0,0.,0.,1.,1.,1.,1.,1.,0.,0.,1.,1.,0.,0.,1.,0.,        415P    363
0.,1.;                                                               415P    364
110,-62.188659977,33.636147389,22.,-62.188659977,33.636147389,       417P    365
24.;                                                                 417P    366
126,1,1,1,0,1,0,0.,0.,1.,1.,1.,1.,1.,1.,0.,0.,1.,0.,0.,1.,0.,        419P    367
0.,1.;                                                               419P    368
110,-62.188659977,33.636147389,24.,-38.114936027,75.333060398,       421P    369
24.;                                                                 421P    370
126,1,1,1,0,1,0,0.,0.,1.,1.,1.,1.,0.,1.,0.,0.,0.,0.,0.,1.,0.,        423P    371
0.,1.;                                                               423P    372
110,-38.114936027,75.333060398,24.,-38.114936027,75.333060398,       425P    373
22.;                                                                 425P    374
126,1,1,1,0,1,0,0.,0.,1.,1.,1.,1.,0.,0.,0.,1.,0.,0.,0.,1.,0.,        427P    375
0.,1.;                                                               427P    376
110,-38.114936027,75.333060398,22.,-62.188659977,33.636147389,       429P    377
22.;                                                                 429P    378
102,4,415,419,423,427;                                               431P    379
102,4,417,421,425,429;                                               433P    380
142,1,413,431,433,1;                                                 435P    381
144,413,1,0,435;                                                     437P    382
128,1,1,1,1,0,0,1,0,0,0.,0.,1.,1.,0.,0.,1.,1.,1.,1.,1.,1.,           439P    383
62.188659977,33.636147389,22.,38.114936027,75.333060398,22.,         439P    384
62.188659977,33.636147389,24.,38.114936027,75.333060398,24.,0.,      439P    385
1.,0.,1.;                                                            439P    386
126,1,1,1,0,1,0,0.,0.,1.,1.,1.,1.,0.,1.,0.,0.,0.,0.,0.,1.,0.,        441P    387
0.,1.;                                                               441P    388
110,62.188659977,33.636147389,24.,62.188659977,33.636147389,         443P    389
22.;                                                                 443P    390
126,1,1,1,0,1,0,0.,0.,1.,1.,1.,1.,0.,0.,0.,1.,0.,0.,0.,1.,0.,        445P    391
0.,1.;                                                               445P    392
110,62.188659977,33.636147389,22.,38.114936027,75.333060398,         447P    393
22.;                                                                 447P    394
126,1,1,1,0,1,0,0.,0.,1.,1.,1.,1.,1.,0.,0.,1.,1.,0.,0.,1.,0.,        449P    395
0.,1.;                                                               449P    396
110,38.114936027,75.333060398,22.,38.114936027,75.333060398,         451P    397
24.;                                                                 451P    398
126,1,1,1,0,1,0,0.,0.,1.,1.,1.,1.,1.,1.,0.,0.,1.,0.,0.,1.,0.,        453P    399
0.,1.;                                                               453P    400
110,38.114936027,75.333060398,24.,62.188659977,33.636147389,         455P    401
24.;                                                                 455P    402
102,4,441,445,449,453;                                               457P    403
102,4,443,447,451,455;                                               459P    404
142,1,439,457,459,1;                                                 461P    405
144,439,1,0,461;                                                     463P    406
128,1,1,1,1,0,0,1,0,0,0.,0.,1.,1.,0.,0.,1.,1.,1.,1.,1.,1.,           465P    407
-38.114936027,75.333060398,3.,-38.114936027,75.333060398,24.,        465P    408
-38.114936027,85.333060398,3.,-38.114936027,85.333060398,24.,        465P    409
0.,1.,0.,1.;                                                         465P    410
126,1,1,1,0,1,0,0.,0.,1.,1.,1.,1.,0.904761905,0.6,0.,                467P    411
0.904761905,0.,0.,0.,1.,0.,0.,1.;                                    467P    412
110,-38.114936027,81.333060398,22.,-38.114936027,75.333060398,       469P    413
22.;                                                                 469P    414
126,1,1,1,0,1,0,0.,0.,1.,1.,1.,1.,0.904761905,0.,0.,1.,0.,0.,        471P    415
0.,1.,0.,0.,1.;                                                      471P    416
110,-38.114936027,75.333060398,22.,-38.114936027,75.333060398,       473P    417
24.;                                                                 473P    418
126,1,1,1,0,1,0,0.,0.,1.,1.,1.,1.,1.,0.,0.,1.,1.,0.,0.,1.,0.,        475P    419
0.,1.;                                                               475P    420
110,-38.114936027,75.333060398,24.,-38.114936027,85.333060398,       477P    421
24.;                                                                 477P    422
126,1,1,1,0,1,0,0.,0.,1.,1.,1.,1.,1.,1.,0.,0.,1.,0.,0.,1.,0.,        479P    423
0.,1.;                                                               479P    424
110,-38.114936027,85.333060398,24.,-38.114936027,85.333060398,       481P    425
3.;                                                                  481P    426
126,1,1,1,0,1,0,0.,0.,1.,1.,1.,1.,0.,1.,0.,0.,0.6,0.,0.,1.,0.,       483P    427
0.,1.;                                                               483P    428
110,-38.114936027,85.333060398,3.,-38.114936027,81.333060398,        485P    429
3.;                                                                  485P    430
126,1,1,1,0,1,0,0.,0.,1.,1.,1.,1.,0.,0.6,0.,0.904761905,0.6,0.,      487P    431
0.,1.,0.,0.,1.;                                                      487P    432
110,-38.114936027,81.333060398,3.,-38.114936027,81.333060398,        489P    433
22.;                                                                 489P    434
102,6,467,471,475,479,483,487;                                       491P    435
102,6,469,473,477,481,485,489;                                       493P    436
142,1,465,491,493,1;                                                 495P    437
144,465,1,0,495;                                                     497P    438
128,1,1,1,1,0,0,1,0,0,0.,0.,1.,1.,0.,0.,1.,1.,1.,1.,1.,1.,           499P    439
38.114936027,81.333060398,3.,-38.114936027,81.333060398,3.,          499P    440
38.114936027,85.333060398,3.,-38.114936027,85.333060398,3.,0.,       499P    441
1.,0.,1.;                                                            499P    442
126,1,1,1,0,1,0,0.,0.,1.,1.,1.,1.,1.,0.,0.,1.,1.,0.,0.,1.,0.,        501P    443
0.,1.;                                                               501P    444
110,-38.114936027,81.333060398,3.,-38.114936027,85.333060398,        503P    445
3.;                                                                  503P    446
126,1,1,1,0,1,0,0.,0.,1.,1.,1.,1.,1.,1.,0.,0.,1.,0.,0.,1.,0.,        505P    447
0.,1.;                                                               505P    448
110,-38.114936027,85.333060398,3.,38.114936027,85.333060398,3.;      507P    449
126,1,1,1,0,1,0,0.,0.,1.,1.,1.,1.,0.,1.,0.,0.,0.,0.,0.,1.,0.,        509P    450
0.,1.;                                                               509P    451
110,38.114936027,85.333060398,3.,38.114936027,81.333060398,3.;       511P    452
126,1,1,1,0,1,0,0.,0.,1.,1.,1.,1.,0.,0.,0.,0.015147612,0.5,0.,       513P    453
0.,1.,0.,0.,1.;                                                      513P    454
110,38.114936027,81.333060398,3.,36.960235489,83.333060398,3.;       515P    455
126,1,1,1,0,1,0,0.,0.,1.,1.,1.,1.,0.015147612,0.5,0.,                517P    456
0.984852388,0.5,0.,0.,1.,0.,0.,1.;                                   517P    457
110,36.960235489,83.333060398,3.,-36.960235489,83.333060398,3.;      519P    458
126,1,1,1,0,1,0,0.,0.,1.,1.,1.,1.,0.984852388,0.5,0.,1.,0.,0.,       521P    459
0.,1.,0.,0.,1.;                                                      521P    460
110,-36.960235489,83.333060398,3.,-38.114936027,81.333060398,        523P    461
3.;                                                                  523P    462
102,6,501,505,509,513,517,521;                                       525P    463
102,6,503,507,511,515,519,523;                                       527P    464
142,1,499,525,527,1;                                                 529P    465
144,499,1,0,529;                                                     531P    466
128,1,1,1,1,0,0,1,0,0,0.,0.,1.,1.,0.,0.,1.,1.,1.,1.,1.,1.,           533P    467
38.114936027,75.333060398,24.,38.114936027,75.333060398,3.,          533P    468
38.114936027,85.333060398,24.,38.114936027,85.333060398,3.,0.,       533P    469
1.,0.,1.;                                                            533P    470
126,1,1,1,0,1,0,0.,0.,1.,1.,1.,1.,1.,0.6,0.,1.,1.,0.,0.,1.,0.,       535P    471
0.,1.;                                                               535P    472
110,38.114936027,81.333060398,3.,38.114936027,85.333060398,3.;       537P    473
126,1,1,1,0,1,0,0.,0.,1.,1.,1.,1.,1.,1.,0.,0.,1.,0.,0.,1.,0.,        539P    474
0.,1.;                                                               539P    475
110,38.114936027,85.333060398,3.,38.114936027,85.333060398,24.;      541P    476
126,1,1,1,0,1,0,0.,0.,1.,1.,1.,1.,0.,1.,0.,0.,0.,0.,0.,1.,0.,        543P    477
0.,1.;                                                               543P    478
110,38.114936027,85.333060398,24.,38.114936027,75.333060398,         545P    479
24.;                                                                 545P    480
126,1,1,1,0,1,0,0.,0.,1.,1.,1.,1.,0.,0.,0.,0.095238095,0.,0.,        547P    481
0.,1.,0.,0.,1.;                                                      547P    482
110,38.114936027,75.333060398,24.,38.114936027,75.333060398,         549P    483
22.;                                                                 549P    484
126,1,1,1,0,1,0,0.,0.,1.,1.,1.,1.,0.095238095,0.,0.,                 551P    485
0.095238095,0.6,0.,0.,1.,0.,0.,1.;                                   551P    486
110,38.114936027,75.333060398,22.,38.114936027,81.333060398,         553P    487
22.;                                                                 553P    488
126,1,1,1,0,1,0,0.,0.,1.,1.,1.,1.,0.095238095,0.6,0.,1.,0.6,0.,      555P    489
0.,1.,0.,0.,1.;                                                      555P    490
110,38.114936027,81.333060398,22.,38.114936027,81.333060398,3.;      557P    491
102,6,535,539,543,547,551,555;                                       559P    492
102,6,537,541,545,549,553,557;                                       561P    493
142,1,533,559,561,1;                                                 563P    494
144,533,1,0,563;                                                     565P    495
128,1,1,1,1,0,0,1,0,0,0.,0.,1.,1.,0.,0.,1.,1.,1.,1.,1.,1.,           567P    496
-66.440594731,33.636147389,5.,66.440594731,33.636147389,5.,          567P    497
-66.440594731,35.636147389,5.,66.440594731,35.636147389,5.,0.,       567P    498
1.,0.,1.;                                                            567P    499
126,1,1,1,0,1,0,0.,0.,1.,1.,1.,1.,0.985381425,1.,0.,                 569P    500
0.014618575,1.,0.,0.,1.,0.,0.,1.;                                    569P    501
110,64.498061053,35.636147389,5.,-64.498061053,35.636147389,5.;      571P    502
126,1,1,1,0,1,0,0.,0.,1.,1.,1.,1.,0.014618575,1.,0.,                 573P    503
0.005928854,0.,0.,0.,1.,0.,0.,1.;                                    573P    504
110,-64.498061053,35.636147389,5.,-65.652761592,33.636147389,        575P    505
5.;                                                                  575P    506
126,1,1,1,0,1,0,0.,0.,1.,1.,1.,1.,0.005928854,0.,0.,                 577P    507
0.994071146,0.,0.,0.,1.,0.,0.,1.;                                    577P    508
110,-65.652761592,33.636147389,5.,65.652761592,33.636147389,5.;      579P    509
126,1,1,1,0,1,0,0.,0.,1.,1.,1.,1.,0.994071146,0.,0.,                 581P    510
0.985381425,1.,0.,0.,1.,0.,0.,1.;                                    581P    511
110,65.652761592,33.636147389,5.,64.498061053,35.636147389,5.;       583P    512
102,4,569,573,577,581;                                               585P    513
102,4,571,575,579,583;                                               587P    514
142,1,567,585,587,1;                                                 589P    515
144,567,1,0,589;                                                     591P    516
128,1,1,1,1,0,0,1,0,0,0.,0.,1.,1.,0.,0.,1.,1.,1.,1.,1.,1.,           593P    517
-64.498061053,35.636147389,2.,-64.498061053,35.636147389,5.,         593P    518
64.498061053,35.636147389,2.,64.498061053,35.636147389,5.,0.,        593P    519
1.,0.,1.;                                                            593P    520
126,1,1,1,0,1,0,0.,0.,1.,1.,1.,1.,0.,1.,0.,0.,0.,0.,0.,1.,0.,        595P    521
0.,1.;                                                               595P    522
110,64.498061053,35.636147389,2.,-64.498061053,35.636147389,2.;      597P    523
126,1,1,1,0,1,0,0.,0.,1.,1.,1.,1.,0.,0.,0.,1.,0.,0.,0.,1.,0.,        599P    524
0.,1.;                                                               599P    525
110,-64.498061053,35.636147389,2.,-64.498061053,35.636147389,        601P    526
5.;                                                                  601P    527
126,1,1,1,0,1,0,0.,0.,1.,1.,1.,1.,1.,0.,0.,1.,1.,0.,0.,1.,0.,        603P    528
0.,1.;                                                               603P    529
110,-64.498061053,35.636147389,5.,64.498061053,35.636147389,5.;      605P    530
126,1,1,1,0,1,0,0.,0.,1.,1.,1.,1.,1.,1.,0.,0.,1.,0.,0.,1.,0.,        607P    531
0.,1.;                                                               607P    532
110,64.498061053,35.636147389,5.,64.498061053,35.636147389,2.;       609P    533
102,4,595,599,603,607;                                               611P    534
102,4,597,601,605,609;                                               613P    535
142,1,593,611,613,1;                                                 615P    536
144,593,1,0,615;                                                     617P    537
S      1G      4D    618P    537                                        T      1
