SolidWorks IGES file using analytic representation for surfaces         S      1
1H,,1H;,7HBattery,53HZ:\Dropbox\Floatsat\Mechanical_Models\Igs\Battery.IG      1
GS,15HSolidWorks 2016,15HSolidWorks 2016,32,308,15,308,15,7HBattery,1., G      2
2,2HMM,50,0.125,13H171214.023019,1E-008,499990.,13HMarcoSanroman,,11,0, G      3
13H171214.023019;                                                       G      4
     314       1       0       0       0                        00000200D      1
     314       0       3       1       0                               0D      2
     110       2       0       0       0                        01010000D      3
     110       0       0       1       0                               0D      4
     110       3       0       0       0                        01010000D      5
     110       0       0       1       0                               0D      6
     120       4       0       0       0                        01010000D      7
     120       0       0       1       0                               0D      8
     126       5       0       0       0                        01010500D      9
     126       0       0       2       0                               0D     10
     100       7       0       0       0                        01010000D     11
     100       0       0       1       0                               0D     12
     126       8       0       0       0                        01010500D     13
     126       0       0       2       0                               0D     14
     110      10       0       0       0                        01010000D     15
     110       0       0       1       0                               0D     16
     126      11       0       0       0                        01010500D     17
     126       0       0       2       0                               0D     18
     124      13       0       0       0                        00000000D     19
     124       0       0       4       0                               0D     20
     100      17       0       0       0              19        01010000D     21
     100       0       0       1       0                               0D     22
     126      18       0       0       0                        01010500D     23
     126       0       0       2       0                               0D     24
     110      20       0       0       0                        01010000D     25
     110       0       0       1       0                               0D     26
     102      21       0       0       0                        01010500D     27
     102       0       0       1       0                               0D     28
     102      22       0       0       0                        01010000D     29
     102       0       0       1       0                               0D     30
     142      23       0       0       0                        00010500D     31
     142       0       0       1       0                               0D     32
     144      24       0       0       0                        00000000D     33
     144       0      -1       1       0                               0D     34
     128      25       0       0       0                        01010000D     35
     128       0       0       2       0                               0D     36
     126      27       0       0       0                        01010500D     37
     126       0       0       2       0                               0D     38
     110      29       0       0       0                        01010000D     39
     110       0       0       1       0                               0D     40
     126      30       0       0       0                        01010500D     41
     126       0       0       2       0                               0D     42
     110      32       0       0       0                        01010000D     43
     110       0       0       1       0                               0D     44
     126      33       0       0       0                        01010500D     45
     126       0       0       2       0                               0D     46
     110      35       0       0       0                        01010000D     47
     110       0       0       1       0                               0D     48
     126      36       0       0       0                        01010500D     49
     126       0       0       2       0                               0D     50
     110      38       0       0       0                        01010000D     51
     110       0       0       1       0                               0D     52
     102      39       0       0       0                        01010500D     53
     102       0       0       1       0                               0D     54
     102      40       0       0       0                        01010000D     55
     102       0       0       1       0                               0D     56
     142      41       0       0       0                        00010500D     57
     142       0       0       1       0                               0D     58
     144      42       0       0       0                        00000000D     59
     144       0      -1       1       0                               0D     60
     110      43       0       0       0                        01010000D     61
     110       0       0       1       0                               0D     62
     110      44       0       0       0                        01010000D     63
     110       0       0       1       0                               0D     64
     120      45       0       0       0                        01010000D     65
     120       0       0       1       0                               0D     66
     126      46       0       0       0                        01010500D     67
     126       0       0       2       0                               0D     68
     100      48       0       0       0                        01010000D     69
     100       0       0       1       0                               0D     70
     126      49       0       0       0                        01010500D     71
     126       0       0       2       0                               0D     72
     110      51       0       0       0                        01010000D     73
     110       0       0       1       0                               0D     74
     126      52       0       0       0                        01010500D     75
     126       0       0       2       0                               0D     76
     124      54       0       0       0                        00000000D     77
     124       0       0       4       0                               0D     78
     100      58       0       0       0              77        01010000D     79
     100       0       0       1       0                               0D     80
     126      59       0       0       0                        01010500D     81
     126       0       0       2       0                               0D     82
     110      61       0       0       0                        01010000D     83
     110       0       0       1       0                               0D     84
     102      62       0       0       0                        01010500D     85
     102       0       0       1       0                               0D     86
     102      63       0       0       0                        01010000D     87
     102       0       0       1       0                               0D     88
     142      64       0       0       0                        00010500D     89
     142       0       0       1       0                               0D     90
     144      65       0       0       0                        00000000D     91
     144       0      -1       1       0                               0D     92
     128      66       0       0       0                        01010000D     93
     128       0       0       2       0                               0D     94
     126      68       0       0       0                        01010500D     95
     126       0       0       2       0                               0D     96
     110      70       0       0       0                        01010000D     97
     110       0       0       1       0                               0D     98
     126      71       0       0       0                        01010500D     99
     126       0       0       2       0                               0D    100
     110      73       0       0       0                        01010000D    101
     110       0       0       1       0                               0D    102
     126      74       0       0       0                        01010500D    103
     126       0       0       2       0                               0D    104
     110      76       0       0       0                        01010000D    105
     110       0       0       1       0                               0D    106
     126      77       0       0       0                        01010500D    107
     126       0       0       2       0                               0D    108
     110      79       0       0       0                        01010000D    109
     110       0       0       1       0                               0D    110
     102      80       0       0       0                        01010500D    111
     102       0       0       1       0                               0D    112
     102      81       0       0       0                        01010000D    113
     102       0       0       1       0                               0D    114
     142      82       0       0       0                        00010500D    115
     142       0       0       1       0                               0D    116
     144      83       0       0       0                        00000000D    117
     144       0      -1       1       0                               0D    118
     110      84       0       0       0                        01010000D    119
     110       0       0       1       0                               0D    120
     110      85       0       0       0                        01010000D    121
     110       0       0       1       0                               0D    122
     120      86       0       0       0                        01010000D    123
     120       0       0       1       0                               0D    124
     126      87       0       0       0                        01010500D    125
     126       0       0       2       0                               0D    126
     100      89       0       0       0                        01010000D    127
     100       0       0       1       0                               0D    128
     126      90       0       0       0                        01010500D    129
     126       0       0       2       0                               0D    130
     110      92       0       0       0                        01010000D    131
     110       0       0       1       0                               0D    132
     126      93       0       0       0                        01010500D    133
     126       0       0       2       0                               0D    134
     124      95       0       0       0                        00000000D    135
     124       0       0       5       0                               0D    136
     100     100       0       0       0             135        01010000D    137
     100       0       0       1       0                               0D    138
     126     101       0       0       0                        01010500D    139
     126       0       0       2       0                               0D    140
     110     103       0       0       0                        01010000D    141
     110       0       0       1       0                               0D    142
     102     104       0       0       0                        01010500D    143
     102       0       0       1       0                               0D    144
     102     105       0       0       0                        01010000D    145
     102       0       0       1       0                               0D    146
     142     106       0       0       0                        00010500D    147
     142       0       0       1       0                               0D    148
     144     107       0       0       0                        00000000D    149
     144       0      -1       1       0                               0D    150
     128     108       0       0       0                        01010000D    151
     128       0       0       2       0                               0D    152
     126     110       0       0       0                        01010500D    153
     126       0       0       2       0                               0D    154
     110     112       0       0       0                        01010000D    155
     110       0       0       1       0                               0D    156
     126     113       0       0       0                        01010500D    157
     126       0       0       2       0                               0D    158
     110     115       0       0       0                        01010000D    159
     110       0       0       1       0                               0D    160
     126     116       0       0       0                        01010500D    161
     126       0       0       2       0                               0D    162
     110     118       0       0       0                        01010000D    163
     110       0       0       1       0                               0D    164
     126     119       0       0       0                        01010500D    165
     126       0       0       2       0                               0D    166
     110     121       0       0       0                        01010000D    167
     110       0       0       1       0                               0D    168
     102     122       0       0       0                        01010500D    169
     102       0       0       1       0                               0D    170
     102     123       0       0       0                        01010000D    171
     102       0       0       1       0                               0D    172
     142     124       0       0       0                        00010500D    173
     142       0       0       1       0                               0D    174
     144     125       0       0       0                        00000000D    175
     144       0      -1       1       0                               0D    176
     110     126       0       0       0                        01010000D    177
     110       0       0       1       0                               0D    178
     110     127       0       0       0                        01010000D    179
     110       0       0       1       0                               0D    180
     120     128       0       0       0                        01010000D    181
     120       0       0       1       0                               0D    182
     126     129       0       0       0                        01010500D    183
     126       0       0       2       0                               0D    184
     100     131       0       0       0                        01010000D    185
     100       0       0       1       0                               0D    186
     126     132       0       0       0                        01010500D    187
     126       0       0       2       0                               0D    188
     110     134       0       0       0                        01010000D    189
     110       0       0       1       0                               0D    190
     126     135       0       0       0                        01010500D    191
     126       0       0       2       0                               0D    192
     124     137       0       0       0                        00000000D    193
     124       0       0       4       0                               0D    194
     100     141       0       0       0             193        01010000D    195
     100       0       0       1       0                               0D    196
     126     142       0       0       0                        01010500D    197
     126       0       0       2       0                               0D    198
     110     144       0       0       0                        01010000D    199
     110       0       0       1       0                               0D    200
     102     145       0       0       0                        01010500D    201
     102       0       0       1       0                               0D    202
     102     146       0       0       0                        01010000D    203
     102       0       0       1       0                               0D    204
     142     147       0       0       0                        00010500D    205
     142       0       0       1       0                               0D    206
     144     148       0       0       0                        00000000D    207
     144       0      -1       1       0                               0D    208
     128     149       0       0       0                        01010000D    209
     128       0       0       2       0                               0D    210
     126     151       0       0       0                        01010500D    211
     126       0       0       2       0                               0D    212
     110     153       0       0       0                        01010000D    213
     110       0       0       1       0                               0D    214
     126     154       0       0       0                        01010500D    215
     126       0       0       2       0                               0D    216
     110     156       0       0       0                        01010000D    217
     110       0       0       1       0                               0D    218
     126     157       0       0       0                        01010500D    219
     126       0       0       2       0                               0D    220
     110     159       0       0       0                        01010000D    221
     110       0       0       1       0                               0D    222
     126     160       0       0       0                        01010500D    223
     126       0       0       2       0                               0D    224
     110     162       0       0       0                        01010000D    225
     110       0       0       1       0                               0D    226
     102     163       0       0       0                        01010500D    227
     102       0       0       1       0                               0D    228
     102     164       0       0       0                        01010000D    229
     102       0       0       1       0                               0D    230
     142     165       0       0       0                        00010500D    231
     142       0       0       1       0                               0D    232
     144     166       0       0       0                        00000000D    233
     144       0      -1       1       0                               0D    234
     128     167       0       0       0                        01010000D    235
     128       0       0       2       0                               0D    236
     126     169       0       0       0                        01010500D    237
     126       0       0      11       0                               0D    238
     100     180       0       0       0                        01010000D    239
     100       0       0       1       0                               0D    240
     126     181       0       0       0                        01010500D    241
     126       0       0       2       0                               0D    242
     110     183       0       0       0                        01010000D    243
     110       0       0       1       0                               0D    244
     126     184       0       0       0                        01010500D    245
     126       0       0      11       0                               0D    246
     100     195       0       0       0                        01010000D    247
     100       0       0       1       0                               0D    248
     126     196       0       0       0                        01010500D    249
     126       0       0       2       0                               0D    250
     110     198       0       0       0                        01010000D    251
     110       0       0       1       0                               0D    252
     126     199       0       0       0                        01010500D    253
     126       0       0      11       0                               0D    254
     100     210       0       0       0                        01010000D    255
     100       0       0       1       0                               0D    256
     126     211       0       0       0                        01010500D    257
     126       0       0       2       0                               0D    258
     110     213       0       0       0                        01010000D    259
     110       0       0       1       0                               0D    260
     126     214       0       0       0                        01010500D    261
     126       0       0      11       0                               0D    262
     100     225       0       0       0                        01010000D    263
     100       0       0       1       0                               0D    264
     126     226       0       0       0                        01010500D    265
     126       0       0       2       0                               0D    266
     110     228       0       0       0                        01010000D    267
     110       0       0       1       0                               0D    268
     102     229       0       0       0                        01010500D    269
     102       0       0       1       0                               0D    270
     102     230       0       0       0                        01010000D    271
     102       0       0       1       0                               0D    272
     142     231       0       0       0                        00010500D    273
     142       0       0       1       0                               0D    274
     144     232       0       0       0                        00000000D    275
     144       0      -1       1       0                               0D    276
     128     233       0       0       0                        01010000D    277
     128       0       0       2       0                               0D    278
     126     235       0       0       0                        01010500D    279
     126       0       0       2       0                               0D    280
     110     237       0       0       0                        01010000D    281
     110       0       0       1       0                               0D    282
     126     238       0       0       0                        01010500D    283
     126       0       0      11       0                               0D    284
     100     249       0       0       0                        01010000D    285
     100       0       0       1       0                               0D    286
     126     250       0       0       0                        01010500D    287
     126       0       0       2       0                               0D    288
     110     252       0       0       0                        01010000D    289
     110       0       0       1       0                               0D    290
     126     253       0       0       0                        01010500D    291
     126       0       0      11       0                               0D    292
     100     264       0       0       0                        01010000D    293
     100       0       0       1       0                               0D    294
     126     265       0       0       0                        01010500D    295
     126       0       0       2       0                               0D    296
     110     267       0       0       0                        01010000D    297
     110       0       0       1       0                               0D    298
     126     268       0       0       0                        01010500D    299
     126       0       0      11       0                               0D    300
     100     279       0       0       0                        01010000D    301
     100       0       0       1       0                               0D    302
     126     280       0       0       0                        01010500D    303
     126       0       0       2       0                               0D    304
     110     282       0       0       0                        01010000D    305
     110       0       0       1       0                               0D    306
     126     283       0       0       0                        01010500D    307
     126       0       0      11       0                               0D    308
     100     294       0       0       0                        01010000D    309
     100       0       0       1       0                               0D    310
     102     295       0       0       0                        01010500D    311
     102       0       0       1       0                               0D    312
     102     296       0       0       0                        01010000D    313
     102       0       0       1       0                               0D    314
     142     297       0       0       0                        00010500D    315
     142       0       0       1       0                               0D    316
     144     298       0       0       0                        00000000D    317
     144       0      -1       1       0                               0D    318
314,29.8039215686275,29.8039215686275,29.8039215686275,;               1P      1
110,-36.,-17.,16.,-36.,-17.,-984.;                                     3P      2
110,-41.,-17.,16.,-41.,-17.,0.;                                        5P      3
120,3,5,0.,6.28318530717959;                                           7P      4
126,1,1,1,0,1,0,0.,0.,1.,1.,1.,1.,1.,6.283185307,0.,1.,                9P      5
4.71238898,0.,0.,1.,0.,0.,1.;                                          9P      6
100,0.,-36.,-17.,-41.,-17.,-36.,-22.;                                 11P      7
126,1,1,1,0,1,0,0.,0.,1.,1.,1.,1.,1.,4.71238898,0.,0.,                13P      8
4.71238898,0.,0.,1.,0.,0.,1.;                                         13P      9
110,-36.,-22.,0.,-36.,-22.,16.;                                       15P     10
126,1,1,1,0,1,0,0.,0.,1.,1.,1.,1.,0.,4.71238898,0.,0.,                17P     11
6.283185307,0.,0.,1.,0.,0.,1.;                                        17P     12
124,-1.38165554678571E-014,-1.,4.8454037155409E-029,                  19P     13
-53.0000000000005,-1.,1.38165554678571E-014,                          19P     14
6.98296267768627E-015,-52.9999999999999,-6.98296267768627E-015,       19P     15
4.80264540108193E-029,-1.,31.9999999999998;                           19P     16
100,16.,-36.,-17.,-31.,-17.,-36.,-12.;                                21P     17
126,1,1,1,0,1,0,0.,0.,1.,1.,1.,1.,0.,6.283185307,0.,1.,               23P     18
6.283185307,0.,0.,1.,0.,0.,1.;                                        23P     19
110,-41.,-17.,16.,-41.,-17.,0.;                                       25P     20
102,4,9,13,17,23;                                                     27P     21
102,4,11,15,21,25;                                                    29P     22
142,1,7,27,29,1;                                                      31P     23
144,7,1,0,31;                                                         33P     24
128,1,1,1,1,0,0,1,0,0,0.,0.,1.,1.,0.,0.,1.,1.,1.,1.,1.,1.,-36.,       35P     25
-22.,0.,-36.,-22.,16.,36.,-22.,0.,36.,-22.,16.,0.,1.,0.,1.;           35P     26
126,1,1,1,0,1,0,0.,0.,1.,1.,1.,1.,0.,0.,0.,1.,0.,0.,0.,1.,0.,         37P     27
0.,1.;                                                                37P     28
110,-36.,-22.,0.,-36.,-22.,16.;                                       39P     29
126,1,1,1,0,1,0,0.,0.,1.,1.,1.,1.,1.,0.,0.,1.,1.,0.,0.,1.,0.,         41P     30
0.,1.;                                                                41P     31
110,-36.,-22.,16.,36.,-22.,16.;                                       43P     32
126,1,1,1,0,1,0,0.,0.,1.,1.,1.,1.,1.,1.,0.,0.,1.,0.,0.,1.,0.,         45P     33
0.,1.;                                                                45P     34
110,36.,-22.,16.,36.,-22.,0.;                                         47P     35
126,1,1,1,0,1,0,0.,0.,1.,1.,1.,1.,0.,1.,0.,0.,0.,0.,0.,1.,0.,         49P     36
0.,1.;                                                                49P     37
110,36.,-22.,0.,-36.,-22.,0.;                                         51P     38
102,4,37,41,45,49;                                                    53P     39
102,4,39,43,47,51;                                                    55P     40
142,1,35,53,55,1;                                                     57P     41
144,35,1,0,57;                                                        59P     42
110,36.,-17.,16.,36.,-17.,-984.;                                      61P     43
110,31.,-17.,16.,31.,-17.,0.;                                         63P     44
120,61,63,0.,6.28318530717959;                                        65P     45
126,1,1,1,0,1,0,0.,0.,1.,1.,1.,1.,1.,4.71238898,0.,1.,                67P     46
3.141592654,0.,0.,1.,0.,0.,1.;                                        67P     47
100,0.,36.,-17.,36.,-22.,41.,-17.;                                    69P     48
126,1,1,1,0,1,0,0.,0.,1.,1.,1.,1.,1.,3.141592654,0.,0.,               71P     49
3.141592654,0.,0.,1.,0.,0.,1.;                                        71P     50
110,41.,-17.,0.,41.,-17.,16.;                                         73P     51
126,1,1,1,0,1,0,0.,0.,1.,1.,1.,1.,0.,3.141592654,0.,0.,               75P     52
4.71238898,0.,0.,1.,0.,0.,1.;                                         75P     53
124,1.,-6.64989577029872E-015,-6.98296267768627E-015,                 77P     54
-2.64165050419249E-015,-6.64989577029872E-015,-1.,                    77P     55
4.84540371554089E-029,-33.9999999999998,-6.98296267768627E-015,       77P     56
-2.01806318090921E-030,-1.,32.0000000000002;                          77P     57
100,16.,36.,-17.,41.,-17.,36.,-12.;                                   79P     58
126,1,1,1,0,1,0,0.,0.,1.,1.,1.,1.,0.,4.71238898,0.,1.,                81P     59
4.71238898,0.,0.,1.,0.,0.,1.;                                         81P     60
110,36.,-22.,16.,36.,-22.,0.;                                         83P     61
102,4,67,71,75,81;                                                    85P     62
102,4,69,73,79,83;                                                    87P     63
142,1,65,85,87,1;                                                     89P     64
144,65,1,0,89;                                                        91P     65
128,1,1,1,1,0,0,1,0,0,0.,0.,1.,1.,0.,0.,1.,1.,1.,1.,1.,1.,41.,        93P     66
-17.,0.,41.,-17.,16.,41.,17.,0.,41.,17.,16.,0.,1.,0.,1.;              93P     67
126,1,1,1,0,1,0,0.,0.,1.,1.,1.,1.,0.,0.,0.,1.,0.,0.,0.,1.,0.,         95P     68
0.,1.;                                                                95P     69
110,41.,-17.,0.,41.,-17.,16.;                                         97P     70
126,1,1,1,0,1,0,0.,0.,1.,1.,1.,1.,1.,0.,0.,1.,1.,0.,0.,1.,0.,         99P     71
0.,1.;                                                                99P     72
110,41.,-17.,16.,41.,17.,16.;                                        101P     73
126,1,1,1,0,1,0,0.,0.,1.,1.,1.,1.,1.,1.,0.,0.,1.,0.,0.,1.,0.,        103P     74
0.,1.;                                                               103P     75
110,41.,17.,16.,41.,17.,0.;                                          105P     76
126,1,1,1,0,1,0,0.,0.,1.,1.,1.,1.,0.,1.,0.,0.,0.,0.,0.,1.,0.,        107P     77
0.,1.;                                                               107P     78
110,41.,17.,0.,41.,-17.,0.;                                          109P     79
102,4,95,99,103,107;                                                 111P     80
102,4,97,101,105,109;                                                113P     81
142,1,93,111,113,1;                                                  115P     82
144,93,1,0,115;                                                      117P     83
110,36.,17.,16.,36.,17.,-984.;                                       119P     84
110,31.,17.,16.,31.,17.,0.;                                          121P     85
120,119,121,0.,6.28318530717959;                                     123P     86
126,1,1,1,0,1,0,0.,0.,1.,1.,1.,1.,1.,3.141592654,0.,1.,              125P     87
1.570796327,0.,0.,1.,0.,0.,1.;                                       125P     88
100,0.,36.,17.,41.,17.,36.,22.;                                      127P     89
126,1,1,1,0,1,0,0.,0.,1.,1.,1.,1.,1.,1.570796327,0.,0.,              129P     90
1.570796327,0.,0.,1.,0.,0.,1.;                                       129P     91
110,36.,22.,0.,36.,22.,16.;                                          131P     92
126,1,1,1,0,1,0,0.,0.,1.,1.,1.,1.,0.,1.570796327,0.,0.,              133P     93
3.141592654,0.,0.,1.,0.,0.,1.;                                       133P     94
124,2.65171667223629E-014,1.,-4.36086334398681E-029,                 135P     95
18.999999999999,1.,-2.65171667223629E-014,                           135P     96
-6.98296267768627E-015,-18.9999999999994,                            135P     97
-6.98296267768627E-015,1.41559752100376E-028,-1.,                    135P     98
32.0000000000002;                                                    135P     99
100,16.,36.,17.,41.,17.,36.,22.;                                     137P    100
126,1,1,1,0,1,0,0.,0.,1.,1.,1.,1.,0.,3.141592654,0.,1.,              139P    101
3.141592654,0.,0.,1.,0.,0.,1.;                                       139P    102
110,41.,17.,16.,41.,17.,0.;                                          141P    103
102,4,125,129,133,139;                                               143P    104
102,4,127,131,137,141;                                               145P    105
142,1,123,143,145,1;                                                 147P    106
144,123,1,0,147;                                                     149P    107
128,1,1,1,1,0,0,1,0,0,0.,0.,1.,1.,0.,0.,1.,1.,1.,1.,1.,1.,-36.,      151P    108
22.,16.,-36.,22.,0.,36.,22.,16.,36.,22.,0.,0.,1.,0.,1.;              151P    109
126,1,1,1,0,1,0,0.,0.,1.,1.,1.,1.,1.,1.,0.,0.,1.,0.,0.,1.,0.,        153P    110
0.,1.;                                                               153P    111
110,36.,22.,0.,36.,22.,16.;                                          155P    112
126,1,1,1,0,1,0,0.,0.,1.,1.,1.,1.,0.,1.,0.,0.,0.,0.,0.,1.,0.,        157P    113
0.,1.;                                                               157P    114
110,36.,22.,16.,-36.,22.,16.;                                        159P    115
126,1,1,1,0,1,0,0.,0.,1.,1.,1.,1.,0.,0.,0.,1.,0.,0.,0.,1.,0.,        161P    116
0.,1.;                                                               161P    117
110,-36.,22.,16.,-36.,22.,0.;                                        163P    118
126,1,1,1,0,1,0,0.,0.,1.,1.,1.,1.,1.,0.,0.,1.,1.,0.,0.,1.,0.,        165P    119
0.,1.;                                                               165P    120
110,-36.,22.,0.,36.,22.,0.;                                          167P    121
102,4,153,157,161,165;                                               169P    122
102,4,155,159,163,167;                                               171P    123
142,1,151,169,171,1;                                                 173P    124
144,151,1,0,173;                                                     175P    125
110,-36.,17.,16.,-36.,17.,-984.;                                     177P    126
110,-41.,17.,16.,-41.,17.,0.;                                        179P    127
120,177,179,0.,6.28318530717959;                                     181P    128
126,1,1,1,0,1,0,0.,0.,1.,1.,1.,1.,1.,1.570796327,0.,1.,0.,0.,        183P    129
0.,1.,0.,0.,1.;                                                      183P    130
100,0.,-36.,17.,-36.,22.,-41.,17.;                                   185P    131
126,1,1,1,0,1,0,0.,0.,1.,1.,1.,1.,1.,0.,0.,0.,0.,0.,0.,1.,0.,        187P    132
0.,1.;                                                               187P    133
110,-41.,17.,0.,-41.,17.,16.;                                        189P    134
126,1,1,1,0,1,0,0.,0.,1.,1.,1.,1.,0.,0.,0.,0.,1.570796327,0.,        191P    135
0.,1.,0.,0.,1.;                                                      191P    136
124,-1.,-8.21565038222616E-015,6.98296267768627E-015,-72.,           193P    137
-8.21565038222616E-015,1.,-3.87632297243271E-029,                    193P    138
-2.96623836604223E-013,-6.98296267768627E-015,                       193P    139
-9.61328097163313E-029,-1.,31.9999999999998;                         193P    140
100,16.,-36.,17.,-31.,17.,-36.,22.;                                  195P    141
126,1,1,1,0,1,0,0.,0.,1.,1.,1.,1.,0.,1.570796327,0.,1.,              197P    142
1.570796327,0.,0.,1.,0.,0.,1.;                                       197P    143
110,-36.,22.,16.,-36.,22.,0.;                                        199P    144
102,4,183,187,191,197;                                               201P    145
102,4,185,189,195,199;                                               203P    146
142,1,181,201,203,1;                                                 205P    147
144,181,1,0,205;                                                     207P    148
128,1,1,1,1,0,0,1,0,0,0.,0.,1.,1.,0.,0.,1.,1.,1.,1.,1.,1.,-41.,      209P    149
-17.,0.,-41.,17.,0.,-41.,-17.,16.,-41.,17.,16.,0.,1.,0.,1.;          209P    150
126,1,1,1,0,1,0,0.,0.,1.,1.,1.,1.,1.,0.,0.,1.,1.,0.,0.,1.,0.,        211P    151
0.,1.;                                                               211P    152
110,-41.,17.,0.,-41.,17.,16.;                                        213P    153
126,1,1,1,0,1,0,0.,0.,1.,1.,1.,1.,1.,1.,0.,0.,1.,0.,0.,1.,0.,        215P    154
0.,1.;                                                               215P    155
110,-41.,17.,16.,-41.,-17.,16.;                                      217P    156
126,1,1,1,0,1,0,0.,0.,1.,1.,1.,1.,0.,1.,0.,0.,0.,0.,0.,1.,0.,        219P    157
0.,1.;                                                               219P    158
110,-41.,-17.,16.,-41.,-17.,0.;                                      221P    159
126,1,1,1,0,1,0,0.,0.,1.,1.,1.,1.,0.,0.,0.,1.,0.,0.,0.,1.,0.,        223P    160
0.,1.;                                                               223P    161
110,-41.,-17.,0.,-41.,17.,0.;                                        225P    162
102,4,211,215,219,223;                                               227P    163
102,4,213,217,221,225;                                               229P    164
142,1,209,227,229,1;                                                 231P    165
144,209,1,0,231;                                                     233P    166
128,1,1,1,1,0,0,1,0,0,0.,0.,1.,1.,0.,0.,1.,1.,1.,1.,1.,1.,-41.,      235P    167
-22.,16.,41.,-22.,16.,-41.,22.,16.,41.,22.,16.,0.,1.,0.,1.;          235P    168
126,16,2,1,0,1,0,0.,0.,0.,0.125,0.125,0.25,0.25,0.375,0.375,         237P    169
0.5,0.5,0.625,0.625,0.75,0.75,0.875,0.875,1.,1.,1.,1.,1.,1.,1.,      237P    170
1.,1.,1.,1.,1.,1.,1.,1.,1.,1.,1.,1.,1.,0.,0.113636364,0.,0.,         237P    171
0.102444159,0.,0.001171629,0.091467009,0.,0.002343258,               237P    172
0.080489859,0.,0.004641492,0.07014961,0.,0.006939725,                237P    173
0.059809361,0.,0.010276243,0.050503383,0.,0.013612761,               237P    174
0.041197404,0.,0.017859343,0.03328332,0.,0.022105924,                237P    175
0.025369236,0.,0.027099376,0.01915118,0.,0.032092828,                237P    176
0.012933125,0.,0.037641254,0.008650053,0.,0.04318968,                237P    177
0.004366982,0.,0.049079858,0.002183491,0.,0.054970036,0.,0.,         237P    178
0.06097561,0.,0.,0.,1.,0.,0.,-1.;                                    237P    179
100,16.,-36.,-17.,-41.,-17.,-36.,-22.;                               239P    180
126,1,1,1,0,1,0,0.,0.,1.,1.,1.,1.,0.06097561,0.,0.,0.93902439,       241P    181
0.,0.,0.,1.,0.,0.,1.;                                                241P    182
110,-36.,-22.,16.,36.,-22.,16.;                                      243P    183
126,16,2,1,0,1,0,0.,0.,0.,0.125,0.125,0.25,0.25,0.375,0.375,         245P    184
0.5,0.5,0.625,0.625,0.75,0.75,0.875,0.875,1.,1.,1.,1.,1.,1.,1.,      245P    185
1.,1.,1.,1.,1.,1.,1.,1.,1.,1.,1.,1.,1.,0.93902439,0.,0.,             245P    186
0.945029964,0.,0.,0.950920142,0.002183491,0.,0.95681032,             245P    187
0.004366982,0.,0.962358746,0.008650053,0.,0.967907172,               245P    188
0.012933125,0.,0.972900624,0.01915118,0.,0.977894076,                245P    189
0.025369236,0.,0.982140657,0.03328332,0.,0.986387239,                245P    190
0.041197404,0.,0.989723757,0.050503383,0.,0.993060275,               245P    191
0.059809361,0.,0.995358508,0.07014961,0.,0.997656742,                245P    192
0.080489859,0.,0.998828371,0.091467009,0.,1.,0.102444159,0.,1.,      245P    193
0.113636364,0.,0.,1.,0.,0.,-1.;                                      245P    194
100,16.,36.,-17.,36.,-22.,41.,-17.;                                  247P    195
126,1,1,1,0,1,0,0.,0.,1.,1.,1.,1.,1.,0.113636364,0.,1.,              249P    196
0.886363636,0.,0.,1.,0.,0.,1.;                                       249P    197
110,41.,-17.,16.,41.,17.,16.;                                        251P    198
126,16,2,1,0,1,0,0.,0.,0.,0.125,0.125,0.25,0.25,0.375,0.375,         253P    199
0.5,0.5,0.625,0.625,0.75,0.75,0.875,0.875,1.,1.,1.,1.,1.,1.,1.,      253P    200
1.,1.,1.,1.,1.,1.,1.,1.,1.,1.,1.,1.,1.,1.,0.886363636,0.,1.,         253P    201
0.897555841,0.,0.998828371,0.908532991,0.,0.997656742,               253P    202
0.919510141,0.,0.995358508,0.92985039,0.,0.993060275,                253P    203
0.940190639,0.,0.989723757,0.949496617,0.,0.986387239,               253P    204
0.958802596,0.,0.982140657,0.96671668,0.,0.977894076,                253P    205
0.974630764,0.,0.972900624,0.98084882,0.,0.967907172,                253P    206
0.987066875,0.,0.962358746,0.991349947,0.,0.95681032,                253P    207
0.995633018,0.,0.950920142,0.997816509,0.,0.945029964,1.,0.,         253P    208
0.93902439,1.,0.,0.,1.,0.,0.,-1.;                                    253P    209
100,16.,36.,17.,41.,17.,36.,22.;                                     255P    210
126,1,1,1,0,1,0,0.,0.,1.,1.,1.,1.,0.93902439,1.,0.,0.06097561,       257P    211
1.,0.,0.,1.,0.,0.,1.;                                                257P    212
110,36.,22.,16.,-36.,22.,16.;                                        259P    213
126,16,2,1,0,1,0,0.,0.,0.,0.125,0.125,0.25,0.25,0.375,0.375,         261P    214
0.5,0.5,0.625,0.625,0.75,0.75,0.875,0.875,1.,1.,1.,1.,1.,1.,1.,      261P    215
1.,1.,1.,1.,1.,1.,1.,1.,1.,1.,1.,1.,1.,0.06097561,1.,0.,             261P    216
0.054970036,1.,0.,0.049079858,0.997816509,0.,0.04318968,             261P    217
0.995633018,0.,0.037641254,0.991349947,0.,0.032092828,               261P    218
0.987066875,0.,0.027099376,0.98084882,0.,0.022105924,                261P    219
0.974630764,0.,0.017859343,0.96671668,0.,0.013612761,                261P    220
0.958802596,0.,0.010276243,0.949496617,0.,0.006939725,               261P    221
0.940190639,0.,0.004641492,0.92985039,0.,0.002343258,                261P    222
0.919510141,0.,0.001171629,0.908532991,0.,0.,0.897555841,0.,0.,      261P    223
0.886363636,0.,0.,1.,0.,0.,-1.;                                      261P    224
100,16.,-36.,17.,-36.,22.,-41.,17.;                                  263P    225
126,1,1,1,0,1,0,0.,0.,1.,1.,1.,1.,0.,0.886363636,0.,0.,              265P    226
0.113636364,0.,0.,1.,0.,0.,1.;                                       265P    227
110,-41.,17.,16.,-41.,-17.,16.;                                      267P    228
102,8,237,241,245,249,253,257,261,265;                               269P    229
102,8,239,243,247,251,255,259,263,267;                               271P    230
142,1,235,269,271,1;                                                 273P    231
144,235,1,0,273;                                                     275P    232
128,1,1,1,1,0,0,1,0,0,0.,0.,1.,1.,0.,0.,1.,1.,1.,1.,1.,1.,-41.,      277P    233
-22.,0.,41.,-22.,0.,-41.,22.,0.,41.,22.,0.,0.,1.,0.,1.;              277P    234
126,1,1,1,0,1,0,0.,0.,1.,1.,1.,1.,0.06097561,0.,0.,0.93902439,       279P    235
0.,0.,0.,1.,0.,0.,1.;                                                279P    236
110,-36.,-22.,0.,36.,-22.,0.;                                        281P    237
126,16,2,1,0,1,0,0.,0.,0.,0.125,0.125,0.25,0.25,0.375,0.375,         283P    238
0.5,0.5,0.625,0.625,0.75,0.75,0.875,0.875,1.,1.,1.,1.,1.,1.,1.,      283P    239
1.,1.,1.,1.,1.,1.,1.,1.,1.,1.,1.,1.,1.,0.93902439,0.,0.,             283P    240
0.945029964,0.,0.,0.950920142,0.002183491,0.,0.95681032,             283P    241
0.004366982,0.,0.962358746,0.008650053,0.,0.967907172,               283P    242
0.012933125,0.,0.972900624,0.01915118,0.,0.977894076,                283P    243
0.025369236,0.,0.982140657,0.03328332,0.,0.986387239,                283P    244
0.041197404,0.,0.989723757,0.050503383,0.,0.993060275,               283P    245
0.059809361,0.,0.995358508,0.07014961,0.,0.997656742,                283P    246
0.080489859,0.,0.998828371,0.091467009,0.,1.,0.102444159,0.,1.,      283P    247
0.113636364,0.,0.,1.,0.,0.,-1.;                                      283P    248
100,0.,36.,-17.,36.,-22.,41.,-17.;                                   285P    249
126,1,1,1,0,1,0,0.,0.,1.,1.,1.,1.,1.,0.113636364,0.,1.,              287P    250
0.886363636,0.,0.,1.,0.,0.,1.;                                       287P    251
110,41.,-17.,0.,41.,17.,0.;                                          289P    252
126,16,2,1,0,1,0,0.,0.,0.,0.125,0.125,0.25,0.25,0.375,0.375,         291P    253
0.5,0.5,0.625,0.625,0.75,0.75,0.875,0.875,1.,1.,1.,1.,1.,1.,1.,      291P    254
1.,1.,1.,1.,1.,1.,1.,1.,1.,1.,1.,1.,1.,1.,0.886363636,0.,1.,         291P    255
0.897555841,0.,0.998828371,0.908532991,0.,0.997656742,               291P    256
0.919510141,0.,0.995358508,0.92985039,0.,0.993060275,                291P    257
0.940190639,0.,0.989723757,0.949496617,0.,0.986387239,               291P    258
0.958802596,0.,0.982140657,0.96671668,0.,0.977894076,                291P    259
0.974630764,0.,0.972900624,0.98084882,0.,0.967907172,                291P    260
0.987066875,0.,0.962358746,0.991349947,0.,0.95681032,                291P    261
0.995633018,0.,0.950920142,0.997816509,0.,0.945029964,1.,0.,         291P    262
0.93902439,1.,0.,0.,1.,0.,0.,-1.;                                    291P    263
100,0.,36.,17.,41.,17.,36.,22.;                                      293P    264
126,1,1,1,0,1,0,0.,0.,1.,1.,1.,1.,0.93902439,1.,0.,0.06097561,       295P    265
1.,0.,0.,1.,0.,0.,1.;                                                295P    266
110,36.,22.,0.,-36.,22.,0.;                                          297P    267
126,16,2,1,0,1,0,0.,0.,0.,0.125,0.125,0.25,0.25,0.375,0.375,         299P    268
0.5,0.5,0.625,0.625,0.75,0.75,0.875,0.875,1.,1.,1.,1.,1.,1.,1.,      299P    269
1.,1.,1.,1.,1.,1.,1.,1.,1.,1.,1.,1.,1.,0.06097561,1.,0.,             299P    270
0.054970036,1.,0.,0.049079858,0.997816509,0.,0.04318968,             299P    271
0.995633018,0.,0.037641254,0.991349947,0.,0.032092828,               299P    272
0.987066875,0.,0.027099376,0.98084882,0.,0.022105924,                299P    273
0.974630764,0.,0.017859343,0.96671668,0.,0.013612761,                299P    274
0.958802596,0.,0.010276243,0.949496617,0.,0.006939725,               299P    275
0.940190639,0.,0.004641492,0.92985039,0.,0.002343258,                299P    276
0.919510141,0.,0.001171629,0.908532991,0.,0.,0.897555841,0.,0.,      299P    277
0.886363636,0.,0.,1.,0.,0.,-1.;                                      299P    278
100,0.,-36.,17.,-36.,22.,-41.,17.;                                   301P    279
126,1,1,1,0,1,0,0.,0.,1.,1.,1.,1.,0.,0.886363636,0.,0.,              303P    280
0.113636364,0.,0.,1.,0.,0.,1.;                                       303P    281
110,-41.,17.,0.,-41.,-17.,0.;                                        305P    282
126,16,2,1,0,1,0,0.,0.,0.,0.125,0.125,0.25,0.25,0.375,0.375,         307P    283
0.5,0.5,0.625,0.625,0.75,0.75,0.875,0.875,1.,1.,1.,1.,1.,1.,1.,      307P    284
1.,1.,1.,1.,1.,1.,1.,1.,1.,1.,1.,1.,1.,0.,0.113636364,0.,0.,         307P    285
0.102444159,0.,0.001171629,0.091467009,0.,0.002343258,               307P    286
0.080489859,0.,0.004641492,0.07014961,0.,0.006939725,                307P    287
0.059809361,0.,0.010276243,0.050503383,0.,0.013612761,               307P    288
0.041197404,0.,0.017859343,0.03328332,0.,0.022105924,                307P    289
0.025369236,0.,0.027099376,0.01915118,0.,0.032092828,                307P    290
0.012933125,0.,0.037641254,0.008650053,0.,0.04318968,                307P    291
0.004366982,0.,0.049079858,0.002183491,0.,0.054970036,0.,0.,         307P    292
0.06097561,0.,0.,0.,1.,0.,0.,-1.;                                    307P    293
100,0.,-36.,-17.,-41.,-17.,-36.,-22.;                                309P    294
102,8,279,283,287,291,295,299,303,307;                               311P    295
102,8,281,285,289,293,297,301,305,309;                               313P    296
142,1,277,311,313,1;                                                 315P    297
144,277,1,0,315;                                                     317P    298
S      1G      4D    318P    298                                        T      1
